<?xml version="1.0" encoding="utf-8"?>
<!-- Generator: Adobe Illustrator 17.0.0, SVG Export Plug-In . SVG Version: 6.00 Build 0)  -->
<!DOCTYPE svg PUBLIC "-//W3C//DTD SVG 1.1//EN" "http://www.w3.org/Graphics/SVG/1.1/DTD/svg11.dtd" [
	<!ENTITY ns_flows "http://ns.adobe.com/Flows/1.0/">
	<!ENTITY ns_extend "http://ns.adobe.com/Extensibility/1.0/">
	<!ENTITY ns_ai "http://ns.adobe.com/AdobeIllustrator/10.0/">
	<!ENTITY ns_graphs "http://ns.adobe.com/Graphs/1.0/">
]>
<svg version="1.1" id="Layer_1" xmlns:x="&ns_extend;" xmlns:i="&ns_ai;" xmlns:graph="&ns_graphs;"
	 xmlns="http://www.w3.org/2000/svg" xmlns:xlink="http://www.w3.org/1999/xlink" xmlns:a="http://ns.adobe.com/AdobeSVGViewerExtensions/3.0/"
	 x="0px" y="0px" width="111.9px" height="86.9px" viewBox="0 0 111.9 86.9" enable-background="new 0 0 111.9 86.9"
	 xml:space="preserve">
<g>
	<g>
		<g>
			<g>
				<path fill-rule="evenodd" clip-rule="evenodd" fill="#99262C" d="M105.1,42.5c-0.9,0.2-1.1,0.9-2.5,0.5c-0.5,0.2-3.1-0.2-3.7,0
					c-0.5,0.1-0.7,0-1.9,0c0,0-8.7-0.2-9.3,0c-0.7,0.2-0.6,0.1-2.5,0c-6.1-0.2-14.7,0.3-21.1-0.2c0.2-0.7,3.8-0.6,6.2-0.7
					c2.3-0.1,5.7-0.1,8.1,0c1.1,0,2,0.2,3.1,0.2c1.2,0,2.6-0.1,3.7-0.2c3.9-0.1,13.7-0.2,14.9,0.2c0.2,0.1,0,0.2,0.6,0.2
					C103,42.7,103.8,42.2,105.1,42.5"/>
				<path fill-rule="evenodd" clip-rule="evenodd" fill="#99262C" d="M110.9,34.5c-0.2-1.3,0-19.1,0-19.2c0-2.5,0.2-2.9,0-3.8
					c-0.2-1.3,0.2-6.7,0-7.7c0.2-1.1,0.2-1.9,0.1-2.5c-0.1,0-0.2,0.2-0.3,0.2c-0.2,0-0.4,0-0.5,0c0,1.6,0.2,3.3,0.1,6.2
					c0,1.3-0.1,0.8-0.2,1.3c-0.4,2.3-0.3,22.7-0.2,30.7c0,2.3,0.2,5.2,0.2,7.7c0,2.2-0.2,4.1-0.2,6.4c-0.1,4.9-0.1,12,0,16.6
					c0,2,0,3.2,0.1,5.4c0.3-0.1,0.5,0.1,0.8,0.1c0.2-12.2-0.2-25.4,0-36.2C111,35.8,111.2,36,110.9,34.5"/>
				<path fill-rule="evenodd" clip-rule="evenodd" fill="#99262C" d="M49.1,74.9c-1.9,0.2-27.7,0-27.9,0c-3.6,0-4.2-0.2-5.6,0
					c-1.9,0.2-9.7-0.2-11.2,0c-1.5-0.2-2.2-0.2-3-0.1c0,0.1-0.1,0.2-0.1,0.3c0,0.2-0.5,0.4-0.5,0.5c2.3,0,5-0.2,9.2-0.1
					c1.9,0,1.2,0.1,1.9,0.2c3.4,0.4,33,0.3,44.6,0.2c3.4,0,7.6-0.2,11.2-0.2c3.2,0,6,0.2,9.3,0.2c7.2,0.1,17.4,0.1,24.1,0
					c2.9,0,6.6,0,9.8-0.1c-0.1-0.3-0.3-0.5-0.3-0.8c-17.7-0.2-38.5,0.2-54.1,0C51,74.9,51.3,74.7,49.1,74.9"/>
				<path fill-rule="evenodd" clip-rule="evenodd" fill="#99262C" d="M49.2,1.2c-1.9,0.2-27.3,0-27.5,0c-3.6,0-4.1-0.2-5.5,0
					c-1.9,0.2-9.6-0.2-11,0C3.7,1.1,1.9,1.1,1,1.2c0,0.1,0.4,0.3,0.4,0.4c0,0.2,0.3,0.2,0.3,0.3c2.3,0,4.7-0.2,8.9-0.1
					c1.9,0,1.2,0.1,1.8,0.2c3.4,0.4,32.5,0.3,44,0.2c3.3,0,7.5-0.2,11-0.2c3.1,0,5.9,0.2,9.2,0.2c7.1,0.1,17.1,0.1,23.8,0
					c2.8,0,7.3,0,10.5-0.1c-0.1-0.3,0-0.5,0-0.8c-17.4-0.2-39.1,0.2-54.5,0C51,1.2,51.4,1,49.2,1.2"/>
				<path fill-rule="evenodd" clip-rule="evenodd" fill="#99262C" d="M1.7,34.3c-0.2-1.3,0-19,0-19.1c0-2.5,0.2-2.9,0-3.8
					c-0.2-1.3,0.2-6.6,0-7.6C1.9,2.7,1.9,2,1.8,1.4c-0.1,0-0.1-0.1-0.2-0.1C1.4,1.3,1.2,1.2,1,1.2c0,1.6,0.2,3.5,0.1,6.4
					C1.2,8.9,1,8.4,1,8.8c-0.4,2.3-0.3,22.6-0.2,30.6c0,2.3,0.2,5.2,0.2,7.6c0,2.2-0.2,4.1-0.2,6.4c-0.1,4.9-0.1,11.9,0,16.6
					c0,2,0,3.5,0.1,5.7c0.3-0.1,0.5-0.2,0.8-0.2c0.2-12.1-0.2-25.3,0-36C1.8,35.6,2,35.9,1.7,34.3"/>
				<path fill-rule="evenodd" clip-rule="evenodd" fill="#99262C" d="M46.2,42c-0.1,0.5-0.8,0.8-3.2,0.7c-0.7,0-0.4,0.2-0.7,0.3
					c-1.3,0.5-2-0.5-1.9,0.3c-1.4,0.3-2.1-0.3-2.6-0.3c-0.4,0-0.7,0.2-1.3,0.2c-0.5,0-0.6-0.2-1.3-0.2c0,0-0.2,0.2-0.6,0.2
					c-1.7,0-5.9,0-8.4,0c-4.6,0.1-9.9,0.4-14.3,0.2c-0.9-0.1-1-0.3-2-0.3c-0.6,0-2.2,0.4-3.2,0c0-0.8,2.9-0.6,5.8-0.7
					c1.2,0,4.1-0.1,6.5-0.2c1.5,0,3.1-0.3,5.8-0.2c2,0.1,2.4,0.1,5.2,0c1.9-0.1,4.6,0,6.5,0c1,0,1.1-0.2,2-0.2
					C41.2,41.8,43.7,42.2,46.2,42"/>
				<path fill="#99262C" d="M6.2,7.9h0.4v0.4H6.2V7.9z M8,7.1c1.6,0.2,2.6,0.3,3.2,0.5c1.1-0.1,1.7-0.1,1.8-0.1
					c0.2,0.2,0.3,0.9,0.4,2.2c-0.1,0.5-0.1,0.9-0.1,1.1c0,0.5,0.1,1.4,0.3,2.6l-0.3-0.1v0.3l0.1,1.6h-0.1c0,0.1,0,0.1,0.1,0.1
					l-0.1,1.6v1.4c0.1,0,0.2,0,0.4-0.1c0,0,0.2,0,0.5,0.1l0.7-0.1c0.2,0.1,0.3,0.1,0.4,0.1l0.3-0.1c0,0,0.2,0,0.5,0.1l0.7-0.1
					l0.7,0.1c0.1-0.5,0.1-0.8,0.1-0.8l-0.1-0.8c0.1-0.8,0.1-1.4,0.1-1.8c0-0.4,0-0.9-0.1-1.5c0.1-0.6,0.1-1.2,0.1-2
					c0-0.2,0-0.4-0.1-0.5l0.1-0.8V8.4c0-0.7,0.5-1.1,1.4-1.1c0.5,0,0.8,0,1-0.1l3.5,0.7l0.1,0.3V18c0,0.7,0,1.3,0.1,1.8
					c-0.1,0.6-0.1,1.2-0.1,1.9v17.2c0,0.5-0.3,0.8-0.8,0.8H21c-0.1,0-0.1,0-0.1-0.1l-0.3,0.1h-2.3c-0.5,0-0.8-0.3-0.8-0.8v-2.3
					c0-0.4,0-4.3,0.1-4.6c-0.1-0.3-0.1-0.7-0.1-1.2c0-0.4,0-0.9,0.1-1.4l-0.1-1c0.1-0.8,0.1-1.3,0.1-1.4l-0.1-1.4
					c0.1-0.2,0.1-0.3,0.1-0.4L17.4,25c0.1-0.2,0.1-0.3,0.1-0.5v-0.1c0-0.1-0.1-0.3-0.4-0.4h-1.2c-0.3,0-0.5,0-0.7,0.1l-0.8-0.1h-1.1
					c-0.2,0-0.3,0.1-0.3,0.3V37h0.4v0.1c0,0.2-0.1,0.3-0.4,0.3v0.3l0.1,0.8c-0.2,0.7-0.4,1.1-0.5,1.1h-1.5c-0.2,0-0.4,0-0.5,0.1
					c-0.1,0-0.1,0-0.1-0.1c-0.1,0-0.2,0-0.4,0.1c-1-0.1-1.9-0.1-2.6-0.1H7.3c-0.4-0.2-0.5-0.5-0.5-1v-0.7c0-0.1,0-0.1,0.1-0.1
					c-0.1-0.2-0.1-0.3-0.1-0.4c0.1-0.5,0.1-0.7,0.1-0.8l-0.1-0.3L6.9,36l-0.1-0.3l0.1-4.3c0-0.3,0-0.4-0.1-0.4l0.1-1.4v-5.7
					c0-0.7,0-1.6-0.1-2.6L6.9,21c0-0.1,0-0.1-0.1-0.1l0.1-1v-3.3c0-0.3,0-0.5-0.1-0.7l0.1-0.8v-4c0-0.5,0-1.3,0.1-2.2
					C6.9,8.8,6.9,8.6,6.9,8.4C7.1,7.5,7.5,7.1,8,7.1"/>
				<path fill="#99262C" d="M30.3,7.1h12.6c0,0.7-0.1,1.2-0.3,1.6c0.1,0.5,0.1,0.9,0.1,1.3v0.8l-0.3,0.4l-1-0.1h-2.2
					c-0.6,0-1.3,0.1-2.1,0.1c-0.3-0.1-0.7-0.1-1.2-0.1l-0.3,0.4v1.7c0,0.6,0,1.2,0.1,1.7c-0.1,0.5-0.1,1-0.1,1.7v0.3
					c0,0.3,0.1,0.5,0.3,0.9c1.8,0.1,3.2,0.1,4.1,0.1h2.2l0.4,0.3l-0.1,1v0.7l0.1,0.8c0,0.1,0,0.1-0.1,0.1l0.1,0.7v1
					c0,0.3-0.2,0.4-0.5,0.4c-0.1,0-0.2,0-0.4-0.1c-0.2,0-0.3,0-0.3,0.1c-1.2-0.1-2.1-0.1-2.7-0.1h-2.6c-0.1,0-0.3,0.1-0.4,0.4v6.5
					c0,0.1,0.2,1.9,0.5,2.1c0.2,0,0.4,0,0.5-0.1c0.1,0,0.1,0,0.1,0.1l1.4-0.1h1.8c0.2,0,0.4,0,0.5,0.1c0.2-0.1,0.3-0.1,0.5-0.1h0.4
					l1.4,0.1v1.3c0,0.3,0,0.5,0.1,0.7L43,34.7v1.7c0,0.1-0.1,0.3-0.4,0.4h-1.8c-0.4,0-0.9,0-1.5-0.1c-0.2,0.1-0.3,0.1-0.4,0.1
					c-0.3-0.1-0.5-0.1-0.5-0.1c-0.8,0.1-1.5,0.1-2,0.1c-0.3-0.1-0.5-0.1-0.5-0.1c-0.1,0-0.1,0.1-0.1,0.1l-0.7-0.1h-4.7L30.1,36
					c0-0.4,0-1,0.1-1.9l-0.1-0.7l0.1-1.3c0-0.2,0-2.3-0.1-3.1c0-0.1,0-0.3,0.1-0.9l-0.1-1l0.1-0.7c-0.1-0.6-0.1-1.2-0.1-1.8v-0.4
					c0-0.3,0-0.4,0.1-0.4c0-0.1,0-0.2-0.1-0.4c0.1-4.6,0.1-8.2,0.1-10.8V7.1z M34.6,6.9V7c-0.1,0.3-0.3,0.4-0.8,0.4h-0.4
					C33.3,7.1,33.8,7,34.6,6.9 M36.2,25.3h0.5v0.3c-0.4,0-0.5,0.1-0.5,0.4h-0.7v-0.6h0.1l0.3,0.2C36,25.3,36.1,25.3,36.2,25.3
					 M36.4,5.7l-0.1-0.3V5.3h0.5V6c-0.3,0-0.4,0.2-0.4,0.6h-0.3V6C36.1,5.9,36.2,5.8,36.4,5.7 M37.1,28.2h0.1v0.4l0.7-0.1
					c-0.1,0.2-0.1,0.3-0.1,0.4c-0.6-0.1-1-0.3-1-0.4C36.8,28.3,36.9,28.2,37.1,28.2 M37.6,22.4v0.4c0,0.5-0.1,0.8-0.4,0.8h-0.1
					C37.1,22.8,37.3,22.4,37.6,22.4 M37.2,27.7h0.3v0.3h-0.3V27.7z M38.7,7.3h-0.3V7h0.3V7.3z M39.2,6.6c0.2,0,0.3,0.3,0.4,1
					c-0.1,0-0.2,0-0.4,0.1L39.4,7H39V6.9C39,6.7,39,6.6,39.2,6.6"/>
				<path fill="#99262C" d="M53.9,7.2H58c0.3,0,0.6,0.7,0.8,2.2c0.7,2.2,3,10.2,6.7,24v0.4c0,0.2-0.1,0.2-0.3,0.2h-5.3
					c-0.2,0-0.6-0.9-1.1-2.7l-0.3,0.1H53c-0.3,0-0.6,0.9-0.9,2.6l-0.3,0.1h-5.2c-0.2,0-0.4-0.2-0.4-0.5c0.4-0.7,1-3.3,2-7.9
					c0.2-0.4,0.6-1.7,1.1-4l1.1-3.7c1.8-7,2.7-10.6,2.9-10.7C53.5,7.2,53.7,7.2,53.9,7.2 M55.5,18.8l-1.6,7.5l0.3,0.1h3.1l0.3-0.1
					c-0.4-1.7-1-4.1-1.8-7.5H55.5z M55,31.2h0.1c1,0.3,1.5,0.6,1.5,1.2h-0.4C55.9,32.3,55.5,31.9,55,31.2 M56.1,32.8h0.3
					c0.1,0,0.3,0.1,0.4,0.4h-0.1C56.3,33,56.1,32.9,56.1,32.8 M57,32.4h0.3c0.2,0,0.3,0.1,0.3,0.3v0.1h-0.1
					C57.3,32.8,57.2,32.6,57,32.4 M58.7,32.6v-0.4h0.1c0.2,0,0.3,0.1,0.3,0.3l-0.3,0.1H58.7z"/>
				<path fill="#99262C" d="M69.9,7.2l2.6,0.3c0.6-0.1,1-0.1,1.1-0.1c0.9,0.1,1.7,0.1,2.5,0.1l0.5-0.1c2.8,0.5,4.6,1.2,5.5,2.2
					c1.6,1.6,2.5,3.4,2.5,5.5c0,3.8-1.4,6.2-4.2,7.4l-0.1,0.3L88,39.4v0.4h-1.8c-0.2,0-0.4-0.1-0.5-0.1c-0.2,0.1-0.3,0.1-0.5,0.1
					h-1.5c-0.2,0-0.4-0.1-0.5-0.1c-0.2,0.1-0.3,0.1-0.5,0.1h-0.4c-0.3,0-3-5.7-4.5-9.3c-2-4.5-3-6.9-3-7.1l-0.3-0.1v8.1
					c0,0.2,0.1,0.4,0.1,0.6c-0.1,0.2-0.1,0.3-0.1,0.4c0,0.2,0.1,0.4,0.1,0.6c-0.1,0.5-0.1,0.9-0.1,1.1c0.1,0.7,0.1,2,0.1,2
					c-0.1,0.4-0.3,0.6-0.4,0.6h-4.9c-0.2,0-0.3-0.1-0.3-0.3v-7.8c0-0.3,0-0.5,0.1-0.7l-0.1-0.8V24c0-0.4,0-0.8,0.1-1.1
					c-0.1-0.4-0.1-0.7-0.1-1.1v-2.2c0-0.3,0-0.8,0.1-1.3c0-0.1,0-0.1-0.1-0.1l0.1-1.7V7.6C69.1,7.5,69.3,7.3,69.9,7.2 M74.5,11.9
					l-0.1,0.7v6c0,0.2,0.1,0.3,0.3,0.3c1.7,0,2.8-0.4,3.3-1.1c0.5-0.5,0.8-1.3,1-2.4c0-0.9-0.4-1.7-1.1-2.5c-0.5-0.7-1.4-1-2.9-1
					H74.5z M82.3,31v0.1c0,0.2,0.1,0.3,0.3,0.3h0.1v-0.1c0-0.2-0.1-0.3-0.3-0.3H82.3z"/>
				<path fill="#99262C" d="M88.1,7.2l0.3,0.1c0.1,0,0.1,0,0.1-0.1l3,0.1h1l0.8-0.1c0.5,0.2,1.5,0.3,3.1,0.3h1.2c0.6,0,1.6,0,3-0.1
					v0.1c0.1,0,0.1,0,0.1-0.1c1.1,0.2,3.3,0.3,3.5,0.3c0.2-0.1,0.3-0.1,0.5-0.1l0.1,0.3v4.1c0,0.2-0.1,0.3-0.3,0.3h-5.3
					C99.2,12.2,99,12.5,99,13c0,0.8,0,1.6,0.1,2.5C99.1,16,99,16.7,99,17.4l0.1,0.6c0,0.1,0,0.1-0.1,0.1c0,0.1,0,0.2,0.1,0.4
					c-0.1,0.8-0.1,1.4-0.1,1.9v0.4c0,0.2,0,0.4,0.1,0.6c-0.1,0.2-0.1,0.3-0.1,0.6v1.3c0,0.3,0,0.4,0.1,0.4L99,24.3v15l-0.1,0.7h-5.2
					c-0.2,0-0.3-0.1-0.3-0.3V12.3c0-0.2-0.1-0.3-0.3-0.3H93c-0.3,0-0.5,0-0.7,0.1L91.5,12c-0.5,0-2.8,0-3.7,0.1l-0.1-0.3v-1.7
					c0-0.4,0-0.7,0.1-1.1c-0.1-0.4-0.1-0.7-0.1-1.1V7.6C87.7,7.5,87.8,7.3,88.1,7.2"/>
				<path fill="#99262C" d="M52.4,37.7l1,0.2c0.2,0,0.5,0.3,1.1,0.8c0.6,1,0.9,2.1,0.9,3.3c0,0,0,0,0,0c0,0,0,0.1,0,0.1
					c0,0,0,0.3,0,0.7c-0.1,1.5-0.2,2.4-0.5,2.9c0,0-0.1,0.1-0.2,0.4c-0.4,0.7-0.9,1-1.3,1c-0.1,0.2-0.4,0.3-0.8,0.3h-0.5
					c-0.5,0-1.1-0.2-1.6-0.7c-0.7-0.8-1.1-2.1-1.1-3.9c0-1.4,0.1-2.5,0.4-3.3c0.2-0.7,0.6-1.2,1.2-1.5c0.1-0.1,0.3-0.3,0.7-0.4
					l0.1,0L52.4,37.7z M50.1,43.6L50.1,43.6L50.1,43.6C50.1,43.5,50.1,43.5,50.1,43.6 M50.2,43.6L50.2,43.6L50.2,43.6
					c0.1,0,0.1,0,0.2-0.1L50.2,43.6C50.3,43.5,50.2,43.6,50.2,43.6 M50.4,40.1L50.4,40.1c0,0,0.1,0.1,0.2,0.1v-0.1
					C50.6,40.1,50.6,40,50.4,40.1C50.5,40.1,50.4,40.1,50.4,40.1 M50.4,43.7L50.4,43.7c0,0.1,0,0.1,0.1,0.1c0.1-0.1,0.1-0.1,0.1-0.1
					H50.4z M50.5,44.4L50.5,44.4c0,0.2,0,0.2,0,0.2L50.5,44.4C50.6,44.5,50.6,44.4,50.5,44.4 M50.5,41.1L50.5,41.1
					C50.6,41.2,50.6,41.2,50.5,41.1L50.5,41.1z M51.4,43.2c0,0.7,0.1,1.4,0.4,2.2c0.2,0.4,0.4,0.6,0.7,0.6h0c0.4,0,0.7-0.3,0.8-1
					c0.1,0,0.1-0.6,0.1-1.8c0-0.1,0.1-0.2,0.1-0.2l-0.1-0.1c0-0.2,0.1-0.3,0.1-0.3c-0.1-1.2-0.2-2.1-0.4-2.7
					c-0.2-0.4-0.5-0.6-0.8-0.6c-0.5,0-0.8,0.5-0.9,1.4C51.5,41.1,51.4,41.9,51.4,43.2 M54.5,42.5v0.2h0.1
					C54.6,42.6,54.5,42.6,54.5,42.5L54.5,42.5z M54.9,41.1L54.9,41.1l0.2,0.1v-0.1C54.9,41.1,54.9,41.1,54.9,41.1"/>
				<path fill="#99262C" d="M57.6,37.7c0,0,0.1,0,0.4,0c0.8,0,1.4,0,1.7,0l0.1,0c0.1,0,0.1,0,0.2,0h0.3l0.1,0.1l0,0.2
					c0,0.1,0,0.2,0,0.4c0,0.2,0,0.3,0,0.3c0,0.2,0,0.4,0,0.6l-0.1,0h-0.6l-0.5,0.1v-0.1l-0.1,0.1h-0.9l-0.2,0v1l0,0.3
					c0,0.1,0,0.1,0,0.1l0,0.3c0,0.2,0,0.3,0,0.3l0.1,0.2l0.3,0h1.3c0.1,0,0.3,0,0.4,0c0.1,0,0.1,0,0.2,0v1.6h0c-0.2,0-0.9,0-2.2,0
					c0,0.1,0,0.1,0,0.1c0,0.3,0,0.5,0,0.7v3.3c0,0,0,0,0,0c-0.1,0-0.1,0-0.1,0c0,0,0,0,0,0l-0.2,0h-1.2c0,0-0.1,0-0.1-0.1v-1.4
					c0-0.1,0-0.1,0-0.2c0,0,0,0,0,0c0-0.7,0-1.3,0-1.6v-1.3l0-0.5h0c0-0.1,0-0.1,0-0.1c0-0.1,0-0.1,0-0.2c0-0.2,0-0.3,0-0.4v-0.2
					c0-0.1,0-0.3,0-0.5c0-0.1,0-0.2,0-0.3c0,0,0,0,0,0l0-0.2v-2.4h0.6c0.1,0,0.2,0,0.2,0C57.4,37.8,57.6,37.7,57.6,37.7"/>
				<path fill="#99262C" d="M9.1,50.2c0.3,0.2,0.6,0.3,0.7,0.3h2c0.6,0,1.5,0.3,2.6,0.8c1.3,0.6,2.4,1.9,3.2,4
					c0.4,1.5,0.6,2.8,0.6,3.7v2.6c0,1.4-0.5,3.1-1.5,5.1c-0.9,1.4-2.2,2.3-3.9,2.8c-0.9,0.2-2,0.3-3.1,0.3c-0.1,0-0.2,0-0.2-0.1
					l-0.5,0.1H6.9l-0.2-0.1c-0.1-3.3-0.1-5.9-0.1-7.9v-3.9l-0.1-0.6c0-0.1,0-0.1,0.1-0.1l-0.1-1.1v-2.2c0-0.1,0-0.1,0.1-0.1
					l-0.1-0.2v-0.2c0-0.2,0-0.3,0.1-0.3l-0.1-0.5v-2c0-0.1,0.1-0.2,0.2-0.2h1.9L9.1,50.2z M10.5,53.7v8.7l0.1,0.9h-0.1l0.1,0.2V64
					c0,0.1,0,0.1-0.1,0.1c0,0.1,0,0.1,0.1,0.1l-0.1,0.9V66c0,0.1,0.1,0.2,0.3,0.2c1.3,0,2.4-0.9,3.2-2.8c0.2-1,0.4-2.3,0.4-3.8
					c0-2.2-0.5-3.9-1.5-5c-0.3-0.3-0.8-0.6-1.4-0.9H10.5z"/>
				<path fill="#99262C" d="M22.8,50.4h2.8c0.2,0,0.4,0.5,0.6,1.6c0.5,1.6,2,7.4,4.6,17.3v0.3c0,0.1-0.1,0.2-0.2,0.2h-3.6
					c-0.1,0-0.4-0.7-0.7-1.9L26,67.9h-3.7c-0.2,0-0.4,0.6-0.6,1.8l-0.2,0.1h-3.5c-0.2,0-0.2-0.1-0.3-0.4c0.2-0.5,0.7-2.4,1.4-5.7
					c0.2-0.3,0.4-1.2,0.7-2.9l0.7-2.7c1.2-5,1.8-7.6,1.9-7.7C22.5,50.5,22.7,50.4,22.8,50.4 M23.9,58.8l-1.1,5.4l0.2,0.1h2.1
					l0.2-0.1c-0.3-1.2-0.7-3-1.2-5.4H23.9z M23.6,67.7L23.6,67.7c0.8,0.2,1.1,0.5,1.1,0.8h-0.3C24.2,68.5,23.9,68.2,23.6,67.7
					 M24.3,68.8h0.2c0.1,0,0.2,0.1,0.3,0.3h-0.1C24.4,69,24.3,68.9,24.3,68.8 M25,68.5h0.2c0.1,0,0.2,0.1,0.2,0.2v0.1h-0.1
					C25.1,68.8,25,68.7,25,68.5 M26.1,68.7v-0.3h0.1c0.1,0,0.2,0.1,0.2,0.2L26.1,68.7L26.1,68.7z"/>
				<path fill="#99262C" d="M32.9,50.1l1.8,0.2c0.4-0.1,0.7-0.1,0.7-0.1c0.6,0.1,1.1,0.1,1.7,0.1l0.4-0.1c1.9,0.3,3.1,0.8,3.7,1.5
					c1.1,1.1,1.7,2.3,1.7,3.7c0,2.6-1,4.2-2.9,5l-0.1,0.2l4.1,8.6v0.3h-1.2c-0.1,0-0.3,0-0.4-0.1c-0.1,0.1-0.2,0.1-0.4,0.1h-1
					c-0.1,0-0.3,0-0.4-0.1c-0.1,0.1-0.2,0.1-0.4,0.1h-0.3c-0.2,0-0.8-1.2-1.8-3.6c-1.4-3.1-2-4.7-2-4.9L35.9,61v5.5
					c0,0.1,0,0.3,0.1,0.4c-0.1,0.1-0.1,0.2-0.1,0.3c0,0.1,0,0.3,0.1,0.4c-0.1,0.4-0.1,0.6-0.1,0.8C36,68.8,36,69,36,69.1
					c-0.1,0.3-0.2,0.4-0.3,0.4h-3.3c-0.1,0-0.2-0.1-0.2-0.2v-4.7c0-0.2,0-0.4,0.1-0.5l-0.1-0.6v-2.1c0-0.3,0-0.5,0.1-0.8
					c-0.1-0.2-0.1-0.5-0.1-0.8v-1.5c0-0.2,0-0.5,0.1-0.9c0-0.1,0-0.1-0.1-0.1l0.1-1.1v-6C32.3,50.3,32.5,50.2,32.9,50.1 M36,53.3
					l-0.1,0.5v4.1c0,0.1,0.1,0.2,0.2,0.2c1.2,0,1.9-0.3,2.2-0.8c0.3-0.3,0.5-0.9,0.6-1.6c0-0.6-0.2-1.2-0.7-1.7
					c-0.3-0.4-1-0.7-2-0.7H36z M41.3,66.2v0.1c0,0.1,0.1,0.2,0.2,0.2h0.1v-0.1C41.6,66.3,41.5,66.2,41.3,66.2L41.3,66.2z"/>
				<path fill="#99262C" d="M47.4,50.2c0.2,0.1,0.5,0.1,0.8,0.1l0.2-0.1c1.2,0.1,1.8,0.3,1.8,0.4l-0.1,0.5c0,0.1,0,0.1,0.1,0.1
					l-0.1,0.4v1.7c0,0.5,0,0.9,0.1,1.3c-0.1,0.3-0.1,0.7-0.1,1.2v0.7h0.1c1-3.7,1.5-5.7,1.7-6l0.3-0.2h3.2c0.4,0,0.6,0.1,0.6,0.4
					c-0.7,2.5-1.4,5.2-2,8.1c0.7,2.5,1.1,4.4,1.3,5.6c0.4,2,0.8,3.5,1.2,4.7h0.2v0.2c-0.1,0-0.3,0.1-0.6,0.2l-0.6-0.1l-0.7,0.1
					l-0.5-0.1c-0.7,0.1-1.3,0.1-1.9,0.1h-0.2c-0.6,0-0.8-0.6-0.8-1.8c-0.8-2.9-1.2-4.5-1.2-4.9h-0.1l-0.1,0.9v0.1
					c0,0.4,0,0.7,0.1,0.7c-0.1,0.4-0.1,0.7-0.1,1V69c0,0.3-0.1,0.5-0.3,0.5h-1l-0.4,0.3h-0.1c0-0.2-0.1-0.3-0.2-0.3h-1l-0.3,0.2
					v-0.2h-1c-0.1,0-0.2-0.1-0.4-0.4v-3.5c0-0.1,0-0.3,0.1-0.4l-0.1-0.2c0-0.1,0-0.3,0.1-0.4c0-0.2,0-0.3-0.1-0.4
					c0.1-1.6,0.1-2.9,0.1-3.9v-2c0-0.1,0-0.3-0.1-0.4c0.1-0.1,0.1-0.2,0.1-0.4c0-1.5,0-3.6,0.1-6.4l-0.1-0.5
					C45.5,50.4,46.2,50.2,47.4,50.2 M45.6,69.9h0.6V70h-0.4C45.7,70,45.6,70,45.6,69.9 M50.3,70.7h0.4c-0.1,0.1-0.1,0.2-0.1,0.3H50
					v-0.1C50.2,70.8,50.3,70.8,50.3,70.7 M56.3,66.2h0.3v0.2h-0.3V66.2z M56.8,66.5h0.4v0.1c0,0.1-0.1,0.2-0.2,0.2h-0.2V66.5z"/>
				<path fill="#99262C" d="M68.6,50.2c0.2,0.1,0.4,0.2,0.6,0.2h1.2c0.1,0,0.2,0.1,0.3,0.4c0,0.2,0,0.4-0.1,0.6
					c0.1,0.9,0.1,1.7,0.1,2.5v0.5c0,0.1,0,0.3-0.1,0.4c0.1,0.1,0.1,0.2,0.1,0.4v1.2c0,0.2,0,0.3,0.1,0.4l-0.1,0.5V58
					c0,0.1,0,0.3,0.1,0.4c0,0.1,0,0.1-0.1,0.1l0.1,0.9v0.5c0,0.3,0,0.5-0.1,0.6l0.2,2.9c-0.1,0.2-0.1,0.5-0.1,0.6
					c0.1,0.1,0.1,0.2,0.1,0.4h-0.1l0.1,0.2v1.3c0,0.1,0,0.3,0.1,0.4l-0.1,0.2c0,0.1,0,0.3,0.1,0.4c-0.1,0.6-0.1,1.1-0.1,1.4V69
					c0,0.4,0.1,0.6,0.3,0.6v0.3l-0.6,0.1v-0.1c-0.1,0.1-0.2,0.1-0.3,0.1c-0.2-0.1-0.4-0.2-0.6-0.2h-0.1V70c-0.3,0-0.5-0.2-0.5-0.4
					H69l-0.5,0.1c0-0.1-0.3-0.2-1-0.3c-0.1-0.1-0.2-0.4-0.3-0.8l-0.7-1.2c-0.2-0.8-0.4-1.2-0.7-1.2h-0.1l0.1-0.2V66
					c-0.6-1.7-1.5-3.5-2.6-5.4c0-0.4-0.1-0.5-0.3-0.5v0.6h0.2v0.2c0,0.1-0.1,0.2-0.2,0.2c0,0.1,0,0.1,0.1,0.1l-0.1,1.1v2.1
					c0,0.3,0.1,0.5,0.2,0.7c-0.1,0.5-0.1,0.8-0.2,0.9c0.1,0.5,0.2,0.7,0.3,0.7c0-0.1,0-0.1,0.1-0.1v0.2c0,0.1-0.1,0.2-0.2,0.2
					l0.1,0.9c-0.1,0.3-0.2,0.5-0.2,0.5c0.1,0.2,0.1,0.6,0.1,1.2c-0.5,0.1-0.8,0.1-0.9,0.1v-0.1L62,69.6c-0.1,0-0.3,0-0.4-0.1
					c-0.8,0.1-1.3,0.2-1.8,0.3c-0.6-0.2-0.9-0.4-1-0.4v-1.7c0-0.2,0-0.3-0.1-0.3l0.1-0.5v-0.8c0-0.8,0-1.5-0.1-2
					c0.1-0.5,0.1-0.9,0.1-1c-0.1-1.3-0.1-2.5-0.1-3.5l0.1-0.4L58.7,59c0-0.1,0-0.2,0.1-0.2L58.7,58v-4.3c0-0.3-0.1-0.6-0.3-0.8
					c0.2-0.2,0.3-0.4,0.3-0.6v-0.5l-0.1-0.5c0.1-0.5,0.3-0.7,0.6-0.7c0.1,0,0.2,0,0.2,0.1c0.5-0.1,1.4-0.1,2.8-0.2
					c1.4,2.4,2.5,4.2,3.1,5.4c0.2,0.1,0.5,0.7,1,1.8c0.1,0.2,0.2,0.3,0.3,0.3c-0.1-2.2-0.1-3.7-0.1-4.7v-0.6c0-0.5,0-1.1-0.1-1.7
					c0-0.4,0.6-0.5,1.9-0.5H68.6z M59,69.9h0.2v0.3H59V69.9z M61.3,69.7L61.3,69.7c0.2,0,0.3,0.1,0.4,0.4l-0.2,0.1h-0.2
					c-0.1,0-0.2-0.1-0.2-0.2v-0.2C61.1,69.7,61.2,69.7,61.3,69.7 M65.3,65.8h0.3v0.3c-0.1,0-0.3,0.1-0.5,0.2v-0.2
					C65.2,66.1,65.3,66,65.3,65.8 M65.9,66.4h0.2v0.1c0,0.1-0.1,0.2-0.2,0.2V66.4z M66.6,69.2h0.3v0.5c-0.1,0-0.2-0.1-0.3-0.3V69.2z
					 M67.3,69.7h0.2c0.2,0,0.3,0.2,0.4,0.7h-0.1c-0.3-0.1-0.4-0.2-0.5-0.4V69.7z M70.3,69.5c0,0.1,0.1,0.2,0.2,0.2h0.1v-0.2H70.3z
					 M71.6,69.3h0.2v0.3c0,0.1,0,0.1-0.1,0.1l0.1,0.2v0.1c-0.2-0.1-0.4-0.2-0.4-0.3v-0.2C71.5,69.5,71.6,69.4,71.6,69.3"/>
				<path fill="#99262C" d="M73.4,50.1H82c0,0.5-0.1,0.8-0.2,1.1c0.1,0.4,0.1,0.7,0.1,0.9v0.6L81.7,53L81,52.9h-1.5
					c-0.4,0-0.9,0-1.4,0.1c-0.2-0.1-0.5-0.1-0.8-0.1l-0.2,0.3v1.2c0,0.4,0,0.8,0.1,1.2c-0.1,0.3-0.1,0.7-0.1,1.2v0.2
					c0,0.2,0.1,0.4,0.2,0.6c1.2,0.1,2.2,0.1,2.8,0.1h1.5l0.3,0.2l-0.1,0.7V59l0.1,0.6c0,0.1,0,0.1-0.1,0.1l0.1,0.5v0.7
					c0,0.2-0.1,0.3-0.4,0.3c-0.1,0-0.2,0-0.3-0.1c-0.1,0-0.2,0-0.2,0.1c-0.8-0.1-1.4-0.1-1.8-0.1h-1.8c-0.1,0-0.2,0.1-0.3,0.3v4.5
					c0,0.1,0.1,0.2,0.4,0.4c0.1,0,0.3,0,0.4-0.1c0.1,0,0.1,0,0.1,0.1l0.9-0.1h1.2c0.1,0,0.3,0,0.4,0.1c0.1-0.1,0.2-0.1,0.4-0.1h0.3
					l0.9,0.1v0.9c0,0.2,0,0.4,0.1,0.5l-0.1,0.6v1.2c0,0.1-0.1,0.2-0.3,0.3h-1.2c-0.3,0-0.6,0-1-0.1c-0.1,0.1-0.2,0.1-0.3,0.1
					c-0.2-0.1-0.3-0.1-0.4-0.1c-0.5,0.1-1,0.1-1.4,0.1c-0.2-0.1-0.3-0.1-0.4-0.1c-0.1,0-0.1,0-0.1,0.1l-0.5-0.1h-3.2l-0.1-0.5
					c0-0.3,0-0.7,0.1-1.3l-0.1-0.5l0.1-0.9c0-0.1,0-0.5-0.1-1.1c0,0,0-0.2,0.1-0.6l-0.1-0.7l0.1-0.5c-0.1-0.4-0.1-0.9-0.1-1.3V62
					c0-0.2,0-0.3,0.1-0.3c0-0.1,0-0.2-0.1-0.3c0.1-3.2,0.1-5.7,0.1-7.5V50.1z M76.3,49.9L76.3,49.9c0,0.3-0.2,0.4-0.5,0.4h-0.3
					C75.5,50.1,75.8,50,76.3,49.9 M77.5,62.7h0.4v0.2c-0.2,0-0.4,0.1-0.4,0.3H77v-0.4h0.1l0.2,0.1C77.3,62.8,77.4,62.7,77.5,62.7
					 M77.6,49.2L77.5,49v-0.1h0.4v0.5c-0.2,0-0.3,0.1-0.3,0.4h-0.2v-0.4C77.4,49.2,77.4,49.2,77.6,49.2 M78,64.8L78,64.8l0.1,0.3
					l0.5-0.1c-0.1,0.1-0.1,0.2-0.1,0.3c-0.4-0.1-0.6-0.2-0.6-0.3C77.9,64.9,77.9,64.8,78,64.8 M78.4,60.8v0.3c0,0.3-0.1,0.5-0.3,0.6
					H78C78.1,61.1,78.2,60.8,78.4,60.8 M78.1,64.4h0.2v0.2h-0.2V64.4z M79.1,50.2h-0.2V50h0.2V50.2z M79.5,49.8
					c0.1,0,0.2,0.2,0.3,0.7c-0.1,0-0.2,0-0.3,0.1l0.1-0.5h-0.3v-0.1C79.3,49.8,79.4,49.8,79.5,49.8"/>
				<path fill="#99262C" d="M83.2,56.9L83.2,56.9l0.1,0.3H83C83,57.1,83.1,57,83.2,56.9 M89.1,49.9c0,0.1,0.1,0.2,0.2,0.2h0.6
					c0,0,0.1-0.1,0.3-0.2h0.2c0,0.1,0.1,0.2,0.2,0.4l0.5-0.2c0,0.2,0.2,0.4,0.7,0.4c0-0.1,0.1-0.2,0.3-0.3v0.4h-0.2
					c0.6,0.4,0.9,0.8,0.9,1c0,0.3-0.4,1.5-1.2,3.4l-0.4,0.1c-0.1,0-0.3-0.2-0.6-0.5h-0.2c0,0.1,0,0.2,0.1,0.3c0,0,0,0.2-0.1,0.6
					l0.1,0.6c-0.1,0-0.2-0.2-0.3-0.6v-0.3c-0.1,0-0.2-0.1-0.4-0.4v-0.5h0.2v-0.2c-0.5-0.2-0.8-0.3-0.9-0.3c-1,0.1-1.5,0.5-1.5,1.2
					v0.6c0,0.6,0.5,1.3,1.4,2c0.8,0.5,1.4,1,1.9,1.6l0.2,0.1c0-0.1,0-0.1,0.1-0.1c0.2,0.5,0.5,0.8,0.9,1c0,0.1,0.4,0.8,1.1,2.1
					c0,0.2,0.2,0.7,0.5,1.5l-0.1,0.5v1.2c-0.3,1.4-0.8,2.4-1.4,3.2c-0.2,0-0.4,0.2-0.5,0.6c-0.1-0.1-0.2-0.1-0.3-0.1l-0.1,0.2
					c0.1,0,0.2,0.1,0.2,0.2V70c0,0.1-0.1,0.2-0.4,0.4L91,70.2c0,0.1,0,0.1-0.1,0.1l0.1-0.7v-0.2h-0.1c-1,0.4-1.5,0.6-1.7,0.6h-1.4
					c-1.6,0-2.8-0.3-3.5-1c-0.3-0.2-0.7-0.5-0.9-0.9v-0.6c0.2-0.2,0.7-1,1.3-2.2c0.3-0.4,0.5-0.6,0.6-0.6h0.1c0.8,1,1.7,1.5,2.7,1.5
					c0.9,0,1.3-0.6,1.3-1.9c0.1,0,0.1,0,0.1-0.1c-0.2-0.7-1-1.7-2.2-2.8c-0.5-0.3-1-0.8-1.7-1.4c-0.1,0.1-0.1,0.2-0.1,0.4h-0.1
					c-0.1,0-0.2-0.3-0.3-0.9c-0.1,0-0.4-0.5-0.9-1.4c-0.2,0-0.4-0.4-0.5-1.3c-0.1,0-0.2-0.6-0.2-1.7c0-1.1,0.4-2.3,1.3-3.6
					c0.6-0.4,0.9-0.7,1.1-0.7c1-0.4,2.1-0.6,3.1-0.7C88.9,49.9,89,49.9,89.1,49.9 M91,57.1v0.2c0,0.1-0.1,0.2-0.3,0.3v-0.1
					C90.9,57.3,91,57.1,91,57.1 M91.3,57.8V58c0,0.1-0.1,0.2-0.2,0.2H91v-0.1C91,58,91.1,57.9,91.3,57.8 M91.5,70.5h0.4v0.2
					c-0.2,0-0.4,0.1-0.4,0.3H91v-0.4h0.1l0.2,0.1C91.3,70.6,91.4,70.5,91.5,70.5 M91.1,58.9h0.3V59c0,0.1-0.1,0.2-0.2,0.2L91.1,58.9
					L91.1,58.9z M92.2,56.4L92.2,56.4c-0.2,0.8-0.5,1.1-0.8,1.1v-0.3C91.4,57,91.7,56.7,92.2,56.4 M92.4,68.6v0.3
					c0,0.3-0.1,0.5-0.3,0.5h-0.1C92.1,68.9,92.3,68.6,92.4,68.6"/>
				<path fill="#99262C" d="M94.5,56.9L94.5,56.9l0.1,0.3h-0.4C94.2,57.1,94.3,57,94.5,56.9 M100.4,49.9c0,0.1,0.1,0.2,0.2,0.2h0.6
					c0,0,0.1-0.1,0.3-0.2h0.2c0,0.1,0.1,0.2,0.2,0.4l0.5-0.2c0,0.2,0.2,0.4,0.7,0.4c0-0.1,0.1-0.2,0.3-0.3v0.4h-0.2
					c0.6,0.4,0.9,0.8,0.9,1c0,0.3-0.4,1.5-1.2,3.4l-0.4,0.1c-0.1,0-0.3-0.2-0.6-0.5h-0.2c0,0.1,0,0.2,0.1,0.3c0,0,0,0.2-0.1,0.6
					l0.1,0.6c-0.1,0-0.2-0.2-0.3-0.6v-0.3c-0.1,0-0.2-0.1-0.4-0.4v-0.5h0.2v-0.2c-0.5-0.2-0.8-0.3-0.9-0.3c-1,0.1-1.5,0.5-1.5,1.2
					v0.6c0,0.6,0.5,1.3,1.4,2c0.8,0.5,1.4,1,1.9,1.6l0.2,0.1c0-0.1,0-0.1,0.1-0.1c0.2,0.5,0.5,0.8,0.9,1c0,0.1,0.4,0.8,1.1,2.1
					c0,0.2,0.2,0.7,0.5,1.5l-0.1,0.5v1.2c-0.3,1.4-0.8,2.4-1.4,3.2c-0.2,0-0.4,0.2-0.5,0.6c-0.1-0.1-0.2-0.1-0.3-0.1l-0.1,0.2
					c0.1,0,0.2,0.1,0.2,0.2V70c0,0.1-0.1,0.2-0.4,0.4l-0.3-0.2c0,0.1,0,0.1-0.1,0.1l0.1-0.7v-0.2h-0.1c-1,0.4-1.5,0.6-1.7,0.6h-1.4
					c-1.6,0-2.8-0.3-3.5-1c-0.4-0.2-0.7-0.5-0.9-0.9v-0.6c0.2-0.2,0.7-1,1.3-2.2c0.3-0.4,0.5-0.6,0.6-0.6h0.1c0.8,1,1.7,1.5,2.7,1.5
					c0.9,0,1.3-0.6,1.3-1.9c0.1,0,0.1,0,0.1-0.1c-0.2-0.7-1-1.7-2.2-2.8c-0.5-0.3-1-0.8-1.7-1.4c-0.1,0.1-0.1,0.2-0.1,0.4h-0.1
					c-0.1,0-0.2-0.3-0.3-0.9c-0.1,0-0.4-0.5-0.9-1.4c-0.2,0-0.4-0.4-0.5-1.3c-0.1,0-0.2-0.6-0.2-1.7c0-1.1,0.4-2.3,1.3-3.6
					c0.6-0.4,0.9-0.7,1.1-0.7c1-0.4,2.1-0.6,3.1-0.7C100.2,49.9,100.2,49.9,100.4,49.9 M102.3,57.1v0.2c0,0.1-0.1,0.2-0.3,0.3v-0.1
					C102.1,57.3,102.2,57.1,102.3,57.1 M102.6,57.8V58c0,0.1-0.1,0.2-0.2,0.2h-0.1v-0.1C102.3,58,102.4,57.9,102.6,57.8 M102.8,70.5
					h0.4v0.2c-0.2,0-0.4,0.1-0.4,0.3h-0.5v-0.4h0.1l0.2,0.1C102.6,70.6,102.7,70.5,102.8,70.5 M102.4,58.9h0.3V59
					c0,0.1-0.1,0.2-0.2,0.2L102.4,58.9L102.4,58.9z M103.4,56.4L103.4,56.4c-0.2,0.8-0.5,1.1-0.8,1.1v-0.3
					C102.7,57,102.9,56.7,103.4,56.4 M103.7,68.6v0.3c0,0.3-0.1,0.5-0.3,0.5h-0.1C103.4,68.9,103.5,68.6,103.7,68.6"/>
			</g>
		</g>
		<g>
			<path fill="#99262C" d="M7.7,79.4c0,0,0.1,0,0.2,0c0,0,0.1,0,0.1,0c0.1,0,0.2,0,0.2,0.1l0.2,0h0c0.3,0,0.7,0.2,1.2,0.4
				c0,0,0.1,0.1,0.2,0.3c0,0.1,0.1,0.2,0.2,0.3c0.1,0.3,0.2,0.5,0.2,0.5V81c0,0.6-0.2,1.1-0.6,1.4v0.1c0,0,0.1,0.1,0.2,0.2
				c0.2,0.4,0.4,0.8,0.4,1v0.5c0,0.2-0.1,0.4-0.2,0.8c0,0-0.2,0.2-0.4,0.5c-0.3,0.2-0.7,0.3-1.2,0.3H6.7c0,0,0-0.1,0-0.1
				c0-0.4,0-0.7,0-0.9c0-0.2,0-0.3,0-0.3c0-0.2,0-0.4,0-0.6V81c0,0,0-0.1,0-0.1c0,0,0,0,0,0l0-0.3v-1c0,0,0-0.1,0.1-0.1h0.1
				c0.1,0,0.3,0,0.5,0l0.1,0C7.6,79.4,7.6,79.4,7.7,79.4z M8,80.5c0,0,0,0.1,0,0.1c0,0,0,0,0,0l0,0.2c0,0.1,0,0.1,0,0.1l0,0.2v0.8h0
				c0.3,0,0.6-0.1,0.7-0.2c0.1-0.2,0.2-0.4,0.2-0.6c0-0.2-0.1-0.3-0.2-0.4c-0.1-0.1-0.3-0.2-0.5-0.2H8z M8,83v1.6h0.2
				c0.3,0,0.5-0.1,0.6-0.3c0.1-0.1,0.1-0.2,0.1-0.4c0-0.4-0.2-0.7-0.5-0.8C8.3,83,8.2,83,8.1,83H8z"/>
			<path fill="#99262C" d="M13.2,79.4l0.6,0.1c0.1,0,0.2,0,0.2,0c0.2,0,0.4,0,0.5,0l0.1,0c0.6,0.1,1,0.3,1.2,0.5
				c0.4,0.4,0.5,0.7,0.5,1.2c0,0.8-0.3,1.4-0.9,1.6l0,0.1l1.3,2.8v0.1h-0.4c0,0-0.1,0-0.1,0c0,0-0.1,0-0.1,0h-0.3c0,0-0.1,0-0.1,0
				c0,0-0.1,0-0.1,0h-0.1c-0.1,0-0.3-0.4-0.6-1.2c-0.4-1-0.7-1.5-0.7-1.6l-0.1,0v1.8c0,0,0,0.1,0,0.1c0,0,0,0.1,0,0.1
				c0,0,0,0.1,0,0.1c0,0.1,0,0.2,0,0.2c0,0.1,0,0.2,0,0.2c0,0.1-0.1,0.1-0.1,0.1h-1.1c0,0-0.1,0-0.1-0.1v-1.5c0-0.1,0-0.1,0-0.2
				l0-0.2v-0.7c0-0.1,0-0.2,0-0.2c0-0.1,0-0.2,0-0.2v-0.5c0-0.1,0-0.2,0-0.3c0,0,0,0,0,0l0-0.4v-1.9C13,79.5,13.1,79.5,13.2,79.4z
				 M14.3,80.5l0,0.2v1.3c0,0,0,0.1,0.1,0.1c0.4,0,0.6-0.1,0.7-0.2c0.1-0.1,0.2-0.3,0.2-0.5c0-0.2-0.1-0.4-0.2-0.5
				C14.9,80.6,14.7,80.5,14.3,80.5L14.3,80.5z M16,84.6L16,84.6C16,84.7,16,84.7,16,84.6L16,84.6L16,84.6
				C16.1,84.6,16.1,84.6,16,84.6L16,84.6z"/>
			<path fill="#99262C" d="M19.7,79.5h2.8c0,0.1,0,0.3-0.1,0.3c0,0.1,0,0.2,0,0.3v0.2l-0.1,0.1l-0.2,0h-0.5c-0.1,0-0.3,0-0.5,0
				c-0.1,0-0.2,0-0.3,0l-0.1,0.1v0.4c0,0.1,0,0.3,0,0.4c0,0.1,0,0.2,0,0.4v0.1c0,0.1,0,0.1,0.1,0.2c0.4,0,0.7,0,0.9,0h0.5l0.1,0.1
				l0,0.2v0.2l0,0.2c0,0,0,0,0,0l0,0.2v0.2c0,0.1,0,0.1-0.1,0.1c0,0-0.1,0-0.1,0c0,0-0.1,0-0.1,0c-0.3,0-0.5,0-0.6,0H21
				c0,0-0.1,0-0.1,0.1v1.4c0,0,0,0.1,0.1,0.1c0,0,0.1,0,0.1,0c0,0,0,0,0,0l0.3,0h0.4c0,0,0.1,0,0.1,0c0,0,0.1,0,0.1,0h0.1l0.3,0v0.3
				c0,0.1,0,0.1,0,0.2l0,0.2v0.4c0,0,0,0.1-0.1,0.1h-0.4c-0.1,0-0.2,0-0.3,0c0,0-0.1,0-0.1,0c-0.1,0-0.1,0-0.1,0c-0.2,0-0.3,0-0.5,0
				c-0.1,0-0.1,0-0.1,0c0,0,0,0,0,0l-0.2,0h-1l0-0.2c0-0.1,0-0.2,0-0.4l0-0.2l0-0.3c0,0,0-0.2,0-0.3c0,0,0-0.1,0-0.2l0-0.2l0-0.2
				c0-0.1,0-0.3,0-0.4v-0.1c0-0.1,0-0.1,0-0.1c0,0,0-0.1,0-0.1c0-1,0-1.8,0-2.3V79.5z M20.7,79.5L20.7,79.5c0,0.1-0.1,0.1-0.2,0.1
				h-0.1C20.4,79.5,20.5,79.5,20.7,79.5z M21,83.4h0.1v0.1c-0.1,0-0.1,0-0.1,0.1h-0.2v-0.1h0L21,83.4C21,83.4,21,83.4,21,83.4z
				 M21.1,79.2L21.1,79.2L21.1,79.2L21.1,79.2L21.1,79.2c0,0.1,0,0.1,0,0.2H21L21.1,79.2C21,79.2,21,79.2,21.1,79.2z M21.2,84
				L21.2,84L21.2,84l0.2,0.1c0,0,0,0.1,0,0.1C21.2,84.2,21.2,84.1,21.2,84C21.2,84.1,21.2,84,21.2,84z M21.4,82.8L21.4,82.8
				c0,0.2,0,0.3-0.1,0.3h0C21.2,82.9,21.3,82.8,21.4,82.8z M21.3,83.9L21.3,83.9L21.3,83.9L21.3,83.9L21.3,83.9z M21.6,79.5
				L21.6,79.5L21.6,79.5L21.6,79.5L21.6,79.5z M21.7,79.4c0,0,0.1,0.1,0.1,0.2c0,0-0.1,0-0.1,0V79.4L21.7,79.4L21.7,79.4
				C21.7,79.4,21.7,79.4,21.7,79.4z"/>
			<path fill="#99262C" d="M25.9,79.3L25.9,79.3L25.9,79.3c0.4,0,0.6,0.1,0.8,0.1h0.1c0,0,0.1,0.3,0.2,1c0.1,0.2,0.2,0.7,0.4,1.6
				c0.1,0.2,0.1,0.4,0.1,0.4h0.1c0.2-1,0.3-1.5,0.3-1.5c0.1-0.3,0.2-0.8,0.3-1.5l0.1,0c0.2,0,0.3,0,0.3,0l0.1,0c0,0,0,0,0,0
				c0,0,0.1,0,0.1,0c0.2,0,0.4,0,0.5,0h0.2c0.1,0,0.2,0.1,0.2,0.3l0.4,1.7c0,0,0.1,0.4,0.2,1c0,0,0.1-0.3,0.2-0.8
				c0.3-1.2,0.5-2,0.5-2.3l0.1-0.1c0.1,0,0.2,0.1,0.2,0.1h1l0,0.1c-0.6,2.7-0.9,4.1-0.9,4.2c-0.1,0.1-0.1,0.5-0.2,1.1
				c0,0-0.1,0.3-0.2,0.8c0,0.2-0.1,0.2-0.3,0.2l-0.2,0c0,0,0-0.1-0.1-0.1c-0.2,0-0.3,0.1-0.4,0.1c-0.2,0-0.4-0.1-0.4-0.3
				c-0.1-0.5-0.2-0.9-0.3-1.1c0-0.1-0.1-0.4-0.2-0.9l-0.2-0.9c0-0.1,0-0.1-0.1-0.1c0,0.3-0.2,0.8-0.3,1.6c0,0.1-0.1,0.6-0.4,1.6
				c0,0.1-0.1,0.2-0.4,0.2l-0.2,0c0,0-0.2,0-0.4,0c-0.2,0-0.3-0.1-0.3-0.3v-0.1h-0.1l0-0.1c-0.1-0.4-0.2-0.6-0.2-0.7
				c0,0-0.1-0.2-0.1-0.5c-0.1-0.4-0.2-0.7-0.3-1.1c-0.1-0.2-0.1-0.4-0.2-0.7c0,0-0.1-0.2-0.2-0.6c-0.1-0.2-0.2-0.6-0.3-1.2
				c-0.1-0.1-0.1-0.4-0.2-1v-0.2C25.5,79.4,25.6,79.4,25.9,79.3z"/>
			<path fill="#99262C" d="M35.3,79.5h2.8c0,0.1,0,0.3-0.1,0.3c0,0.1,0,0.2,0,0.3v0.2L38,80.4l-0.2,0h-0.5c-0.1,0-0.3,0-0.5,0
				c-0.1,0-0.2,0-0.3,0l-0.1,0.1v0.4c0,0.1,0,0.3,0,0.4c0,0.1,0,0.2,0,0.4v0.1c0,0.1,0,0.1,0.1,0.2c0.4,0,0.7,0,0.9,0h0.5l0.1,0.1
				l0,0.2v0.2l0,0.2c0,0,0,0,0,0l0,0.2v0.2c0,0.1,0,0.1-0.1,0.1c0,0-0.1,0-0.1,0c0,0-0.1,0-0.1,0c-0.3,0-0.5,0-0.6,0h-0.6
				c0,0-0.1,0-0.1,0.1v1.4c0,0,0,0.1,0.1,0.1c0,0,0.1,0,0.1,0c0,0,0,0,0,0l0.3,0h0.4c0,0,0.1,0,0.1,0c0,0,0.1,0,0.1,0h0.1l0.3,0v0.3
				c0,0.1,0,0.1,0,0.2l0,0.2v0.4c0,0,0,0.1-0.1,0.1h-0.4c-0.1,0-0.2,0-0.3,0c0,0-0.1,0-0.1,0c-0.1,0-0.1,0-0.1,0c-0.2,0-0.3,0-0.5,0
				c-0.1,0-0.1,0-0.1,0c0,0,0,0,0,0l-0.2,0h-1l0-0.2c0-0.1,0-0.2,0-0.4l0-0.2l0-0.3c0,0,0-0.2,0-0.3c0,0,0-0.1,0-0.2l0-0.2l0-0.2
				c0-0.1,0-0.3,0-0.4v-0.1c0-0.1,0-0.1,0-0.1c0,0,0-0.1,0-0.1c0-1,0-1.8,0-2.3V79.5z M36.2,79.5L36.2,79.5c0,0.1-0.1,0.1-0.2,0.1
				h-0.1C35.9,79.5,36,79.5,36.2,79.5z M36.6,83.4h0.1v0.1c-0.1,0-0.1,0-0.1,0.1h-0.2v-0.1h0L36.6,83.4
				C36.5,83.4,36.5,83.4,36.6,83.4z M36.6,79.2L36.6,79.2L36.6,79.2L36.6,79.2L36.6,79.2c0,0.1,0,0.1,0,0.2h-0.1L36.6,79.2
				C36.5,79.2,36.6,79.2,36.6,79.2z M36.8,84L36.8,84L36.8,84l0.2,0.1c0,0,0,0.1,0,0.1C36.8,84.2,36.7,84.1,36.8,84
				C36.7,84.1,36.7,84,36.8,84z M36.9,82.8L36.9,82.8c0,0.2,0,0.3-0.1,0.3h0C36.8,82.9,36.8,82.8,36.9,82.8z M36.8,83.9L36.8,83.9
				L36.8,83.9L36.8,83.9L36.8,83.9z M37.1,79.5L37.1,79.5L37.1,79.5L37.1,79.5L37.1,79.5z M37.2,79.4c0,0,0.1,0.1,0.1,0.2
				c0,0-0.1,0-0.1,0V79.4L37.2,79.4L37.2,79.4C37.2,79.4,37.2,79.4,37.2,79.4z"/>
			<path fill="#99262C" d="M41.2,79.4l0.6,0.1c0.1,0,0.2,0,0.2,0c0.2,0,0.4,0,0.5,0l0.1,0c0.6,0.1,1,0.3,1.2,0.5
				c0.4,0.4,0.5,0.7,0.5,1.2c0,0.8-0.3,1.4-0.9,1.6l0,0.1l1.3,2.8v0.1h-0.4c0,0-0.1,0-0.1,0c0,0-0.1,0-0.1,0h-0.3c0,0-0.1,0-0.1,0
				c0,0-0.1,0-0.1,0h-0.1c-0.1,0-0.3-0.4-0.6-1.2c-0.4-1-0.7-1.5-0.7-1.6l-0.1,0v1.8c0,0,0,0.1,0,0.1c0,0,0,0.1,0,0.1
				c0,0,0,0.1,0,0.1c0,0.1,0,0.2,0,0.2c0,0.1,0,0.2,0,0.2c0,0.1-0.1,0.1-0.1,0.1H41c0,0-0.1,0-0.1-0.1v-1.5c0-0.1,0-0.1,0-0.2l0-0.2
				v-0.7c0-0.1,0-0.2,0-0.2c0-0.1,0-0.2,0-0.2v-0.5c0-0.1,0-0.2,0-0.3c0,0,0,0,0,0l0-0.4v-1.9C41,79.5,41.1,79.5,41.2,79.4z
				 M42.2,80.5l0,0.2v1.3c0,0,0,0.1,0.1,0.1c0.4,0,0.6-0.1,0.7-0.2c0.1-0.1,0.2-0.3,0.2-0.5c0-0.2-0.1-0.4-0.2-0.5
				C42.8,80.6,42.6,80.5,42.2,80.5L42.2,80.5z M44,84.6L44,84.6C44,84.7,44,84.7,44,84.6L44,84.6L44,84.6C44,84.6,44,84.6,44,84.6
				L44,84.6z"/>
			<path fill="#99262C" d="M47.7,79.4h0.7l0.2,0c0,0,0.1,0,0.1,0c0.1,0,0.2,0,0.3,0l0.7,1.9h0c0.4-1.1,0.7-1.7,0.7-1.9
				c0,0,0.1,0,0.1,0l0.2,0h0.3c0,0,0.1,0,0.1,0c0,0,0.1,0,0.1,0h0.3c0,0,0.1,0,0.1,0.1v0.1c0,0.1-0.4,1-1,2.6
				c-0.2,0.5-0.4,0.9-0.5,1.2l0,0.3c0,0.1,0,0.2,0,0.2c0,0.2,0,0.4,0,0.5v1.2c0,0,0,0-0.1,0.1c-0.3,0-0.6,0-0.8,0h-0.4v-1.4l0-0.2
				c0,0,0,0,0,0l0-0.2v-0.1c0-0.1,0-0.2,0-0.2l0-0.2c0-0.2-0.1-0.5-0.3-1C48,80.6,47.7,79.6,47.7,79.4L47.7,79.4z"/>
			<path fill="#99262C" d="M59.6,83l0-0.1l0-0.3c0,0,0-0.1,0-0.1c0-0.1,0-0.2,0-0.3v-0.2c0,0,0-0.1,0-0.1h0.9c0,0,0,0,0.1,0
				c0,0,0,0,0.1,0h0.2c0.1,0,0.2,0,0.3,0c0,0,0,0,0,0l0.1,0h0.7c0.1,0,0.2,0,0.4,0c0,0,0,0,0.1,0v0.1h0l0,0.1v0.9h-0.2
				c0,0-0.1,0-0.1,0c0,0-0.2,0-0.4,0.1v0l0,0h-0.2c-0.1,0-0.2,0-0.3,0c-0.1,0-0.2,0-0.3,0c-0.1,0-0.2,0-0.4,0c-0.1,0-0.1,0-0.2,0
				l-0.1,0l-0.2,0C59.8,83.2,59.6,83.2,59.6,83C59.6,83.1,59.6,83.1,59.6,83z M59.9,82.3L59.9,82.3L59.9,82.3L59.9,82.3L59.9,82.3z
				 M60,82.5L60,82.5l0-0.1h0L60,82.5C60,82.4,60,82.4,60,82.5z M61.6,82.9L61.6,82.9c0-0.1,0-0.1-0.1-0.1L61.6,82.9
				C61.5,82.9,61.6,82.9,61.6,82.9z M62,82.3L62,82.3C62.1,82.3,62.1,82.3,62,82.3v-0.2V82.3z"/>
			<path fill="#99262C" d="M70,81.7L70,81.7L70,81.7L70,81.7C69.9,81.8,70,81.7,70,81.7z M71.9,79.4C71.9,79.4,72,79.4,71.9,79.4
				l0.3,0.1c0,0,0,0,0.1-0.1h0.1c0,0,0,0.1,0.1,0.1l0.2-0.1c0,0.1,0.1,0.1,0.2,0.1c0,0,0-0.1,0.1-0.1v0.1h-0.1
				c0.2,0.1,0.3,0.3,0.3,0.3c0,0.1-0.1,0.5-0.4,1.1l-0.1,0c0,0-0.1-0.1-0.2-0.2h-0.1c0,0,0,0.1,0,0.1c0,0,0,0.1,0,0.2l0,0.2
				c0,0-0.1-0.1-0.1-0.2v-0.1c0,0-0.1,0-0.1-0.1v-0.2h0.1v-0.1c-0.2-0.1-0.3-0.1-0.3-0.1c-0.3,0-0.5,0.2-0.5,0.4v0.2
				c0,0.2,0.2,0.4,0.5,0.7c0.3,0.2,0.5,0.3,0.6,0.5l0.1,0c0,0,0,0,0,0c0.1,0.2,0.2,0.3,0.3,0.3c0,0,0.1,0.3,0.4,0.7
				c0,0.1,0.1,0.2,0.2,0.5l0,0.2v0.4c-0.1,0.5-0.3,0.8-0.5,1c-0.1,0-0.1,0.1-0.2,0.2c0,0-0.1,0-0.1,0l0,0.1c0,0,0.1,0,0.1,0.1V86
				c0,0,0,0.1-0.1,0.1L72.5,86c0,0,0,0,0,0l0-0.2v-0.1h0C72.2,85.9,72,86,72,86h-0.5c-0.5,0-0.9-0.1-1.2-0.3
				c-0.1-0.1-0.2-0.2-0.3-0.3v-0.2c0.1-0.1,0.2-0.3,0.4-0.7c0.1-0.1,0.2-0.2,0.2-0.2h0c0.3,0.3,0.6,0.5,0.9,0.5
				c0.3,0,0.4-0.2,0.4-0.6c0,0,0,0,0,0c-0.1-0.2-0.3-0.5-0.7-0.9c-0.2-0.1-0.3-0.3-0.5-0.5c0,0,0,0.1,0,0.1h0c0,0-0.1-0.1-0.1-0.3
				c0,0-0.1-0.2-0.3-0.5c-0.1,0-0.1-0.1-0.2-0.4c0,0-0.1-0.2-0.1-0.5c0-0.4,0.1-0.8,0.4-1.2c0.2-0.1,0.3-0.2,0.4-0.2
				C71.2,79.5,71.5,79.5,71.9,79.4C71.9,79.4,71.9,79.4,71.9,79.4z M72.6,81.8L72.6,81.8c0,0.1,0,0.1-0.1,0.2v0
				C72.5,81.8,72.5,81.8,72.6,81.8z M72.7,82L72.7,82c0,0.1,0,0.1-0.1,0.1h0L72.7,82C72.6,82,72.6,82,72.7,82z M72.7,86.1h0.1v0.1
				c-0.1,0-0.1,0-0.1,0.1h-0.2v-0.1h0L72.7,86.1C72.7,86.2,72.7,86.1,72.7,86.1z M72.6,82.3L72.6,82.3L72.6,82.3
				C72.7,82.4,72.7,82.4,72.6,82.3L72.6,82.3L72.6,82.3z M72.9,81.5L72.9,81.5c-0.1,0.3-0.2,0.4-0.3,0.4v-0.1
				C72.7,81.7,72.8,81.6,72.9,81.5z M72.9,86.8L72.9,86.8L72.9,86.8l0.2,0.1c0,0,0,0.1,0,0.1C72.9,86.9,72.9,86.9,72.9,86.8
				C72.9,86.8,72.9,86.8,72.9,86.8z M73,85.5L73,85.5c0,0.2,0,0.3-0.1,0.3h0C72.9,85.6,73,85.5,73,85.5z M72.9,86.7L72.9,86.7
				L72.9,86.7L72.9,86.7L72.9,86.7z"/>
			<path fill="#99262C" d="M78,79.4h0.9c0.1,0,0.1,0.2,0.2,0.5c0.2,0.5,0.7,2.4,1.5,5.7v0.1c0,0,0,0.1-0.1,0.1h-1.2
				c0,0-0.1-0.2-0.2-0.6l-0.1,0h-1.2c-0.1,0-0.1,0.2-0.2,0.6l-0.1,0h-1.2c-0.1,0-0.1,0-0.1-0.1c0.1-0.2,0.2-0.8,0.5-1.9
				c0.1-0.1,0.1-0.4,0.2-0.9l0.2-0.9c0.4-1.6,0.6-2.5,0.6-2.5C77.9,79.4,78,79.4,78,79.4z M78.4,82.2L78,83.9l0.1,0h0.7l0.1,0
				C78.7,83.5,78.6,82.9,78.4,82.2L78.4,82.2z M78.3,85.1L78.3,85.1c0.3,0.1,0.4,0.2,0.4,0.3h-0.1C78.5,85.3,78.4,85.2,78.3,85.1z
				 M78.5,85.4L78.5,85.4c0.1,0,0.1,0,0.2,0.1h0C78.5,85.5,78.5,85.5,78.5,85.4z M78.7,85.3L78.7,85.3c0.1,0,0.1,0,0.1,0.1v0
				L78.7,85.3C78.8,85.4,78.7,85.4,78.7,85.3z M79.1,85.4L79.1,85.4L79.1,85.4C79.2,85.3,79.2,85.3,79.1,85.4L79.1,85.4L79.1,85.4z"
				/>
			<path fill="#99262C" d="M83.5,79.4h1.1c0,0,0.1,0,0.1,0.1v6.2h-1.2v0c0-0.1,0-0.2,0-0.2c0,0,0-0.1,0-0.3c0-0.5,0-0.8,0-1.1l0-0.1
				l0-0.1l0-0.1c0-0.1,0-0.2,0-0.3l0-0.1l0-0.1c0,0,0-0.1,0-0.1l0-0.2v-1.7c0-0.1,0-0.2,0-0.2c0-0.1,0-0.2,0-0.2L83.5,79.4
				C83.5,79.5,83.5,79.4,83.5,79.4z"/>
			<path fill="#99262C" d="M89.6,79.4C89.6,79.4,89.6,79.4,89.6,79.4c0.1,0,0.1,0,0.1,0c0.6,0,1,0.1,1.2,0.4c0,0.1-0.2,0.4-0.5,1
				c-0.2-0.2-0.4-0.3-0.7-0.3h0c-0.4,0-0.7,0.4-0.9,1.1c0,0,0,0.4-0.1,1.2c0,0.6,0.1,1.1,0.2,1.4c0.2,0.3,0.5,0.5,0.8,0.5h0.1
				c0.2,0,0.3-0.1,0.3-0.2v-1.3h-0.6c0,0,0-0.1,0-0.2c0-0.4,0-0.6,0-0.7l0.1,0h1.7v0.9l0,0.2c0,0,0,0.1,0,0.2c0,0,0,0.1,0,0.1
				c0,0,0,0,0,0l0,0.2V85c0,0.2-0.1,0.4-0.2,0.5c-0.4,0.2-0.8,0.3-1.2,0.3c-1,0-1.6-0.5-2-1.4c-0.2-0.4-0.3-1-0.3-1.8v0
				c0,0,0-0.1,0-0.1c0,0,0,0,0,0c0.1-0.7,0.2-1.3,0.4-1.8c0.2-0.5,0.5-0.7,0.7-0.8C88.8,79.5,89.2,79.4,89.6,79.4z"/>
			<path fill="#99262C" d="M95.9,79.4l0.7,0.2c0.1,0,0.4,0.2,0.7,0.5c0.4,0.7,0.6,1.4,0.6,2.2c0,0,0,0,0,0c0,0,0,0.1,0,0.1
				c0,0,0,0.2,0,0.4c-0.1,1-0.2,1.6-0.3,1.9c0,0-0.1,0.1-0.1,0.3c-0.3,0.4-0.6,0.7-0.8,0.7c-0.1,0.1-0.2,0.2-0.5,0.2h-0.3
				c-0.3,0-0.7-0.2-1.1-0.5c-0.5-0.5-0.7-1.4-0.7-2.6c0-0.9,0.1-1.6,0.2-2.1c0.2-0.4,0.4-0.8,0.8-1c0-0.1,0.2-0.2,0.5-0.2l0.1,0
				L95.9,79.4z M94.4,83.2L94.4,83.2L94.4,83.2C94.4,83.2,94.4,83.2,94.4,83.2z M94.5,83.3L94.5,83.3L94.5,83.3c0.1,0,0.1,0,0.1-0.1
				L94.5,83.3C94.5,83.2,94.5,83.2,94.5,83.3z M94.6,81L94.6,81c0,0,0.1,0,0.1,0.1V81C94.8,80.9,94.7,80.9,94.6,81
				C94.6,80.9,94.6,80.9,94.6,81z M94.6,83.3L94.6,83.3C94.6,83.4,94.7,83.4,94.6,83.3c0.1,0,0.1,0,0.1,0H94.6z M94.7,83.8
				L94.7,83.8c0,0.1,0,0.1,0,0.1L94.7,83.8C94.8,83.8,94.7,83.8,94.7,83.8z M94.7,81.6L94.7,81.6C94.7,81.7,94.8,81.6,94.7,81.6
				L94.7,81.6z M95.3,83c0,0.4,0.1,0.9,0.2,1.4c0.1,0.2,0.3,0.4,0.5,0.4h0c0.3,0,0.5-0.2,0.5-0.7c0.1,0,0.1-0.4,0.1-1.2
				c0-0.1,0-0.1,0-0.1l0-0.1c0-0.1,0-0.2,0-0.2c0-0.8-0.1-1.4-0.2-1.8c-0.2-0.2-0.3-0.4-0.5-0.4c-0.3,0-0.5,0.3-0.6,0.9
				C95.3,81.6,95.3,82.1,95.3,83z M97.3,82.5v0.1h0.1C97.3,82.6,97.3,82.6,97.3,82.5L97.3,82.5z M97.5,81.6L97.5,81.6l0.1,0.1v0
				C97.6,81.6,97.5,81.6,97.5,81.6z"/>
			<path fill="#99262C" d="M104.1,79.1c0.1,0,0.1,0.1,0.2,0.1h0.4c0,0,0.1,0.1,0.1,0.2c0,0.1,0,0.1,0,0.2c0,0.3,0,0.6,0,0.8v0.2
				c0,0,0,0.1,0,0.1c0,0,0,0.1,0,0.1v0.4c0,0.1,0,0.1,0,0.2l0,0.2v0.2c0,0,0,0.1,0,0.1c0,0,0,0,0,0l0,0.3v0.2c0,0.1,0,0.2,0,0.2
				l0.1,1c0,0.1,0,0.2,0,0.2c0,0,0,0.1,0,0.1h0l0,0.1v0.4c0,0,0,0.1,0,0.1l0,0.1c0,0,0,0.1,0,0.1c0,0.2,0,0.4,0,0.5v0.3
				c0,0.1,0,0.2,0.1,0.2v0.1l-0.2,0v0c0,0-0.1,0-0.1,0c-0.1,0-0.1-0.1-0.2-0.1h0v0.1c-0.1,0-0.2-0.1-0.2-0.2h0l-0.2,0
				c0,0-0.1-0.1-0.3-0.1c0,0-0.1-0.1-0.1-0.3l-0.2-0.4c-0.1-0.3-0.1-0.4-0.2-0.4h0l0-0.1v0c-0.2-0.6-0.5-1.2-0.8-1.8
				c0-0.1,0-0.2-0.1-0.2v0.2h0.1v0.1c0,0,0,0.1-0.1,0.1c0,0,0,0,0,0l0,0.4v0.7c0,0.1,0,0.2,0.1,0.2c0,0.2,0,0.3-0.1,0.3
				c0,0.2,0.1,0.2,0.1,0.2c0,0,0,0,0,0v0.1c0,0,0,0.1-0.1,0.1l0,0.3c0,0.1-0.1,0.2-0.1,0.2c0,0.1,0,0.2,0,0.4c-0.2,0-0.3,0-0.3,0v0
				l-0.1,0c0,0-0.1,0-0.1,0c-0.2,0-0.4,0.1-0.6,0.1c-0.2-0.1-0.3-0.1-0.3-0.1V85c0-0.1,0-0.1,0-0.1l0-0.2v-0.3c0-0.3,0-0.5,0-0.7
				c0-0.2,0-0.3,0-0.3c0-0.4,0-0.8,0-1.2l0-0.2l0-0.1c0,0,0-0.1,0-0.1l0-0.3v-1.5c0-0.1,0-0.2-0.1-0.3c0.1-0.1,0.1-0.1,0.1-0.2v-0.2
				l0-0.2c0-0.2,0.1-0.2,0.2-0.2c0,0,0.1,0,0.1,0c0.2,0,0.5,0,0.9-0.1c0.5,0.8,0.8,1.4,1,1.8c0.1,0,0.2,0.2,0.3,0.6
				c0,0.1,0.1,0.1,0.1,0.1c0-0.7,0-1.3,0-1.6v-0.2c0-0.2,0-0.4,0-0.6c0-0.1,0.2-0.2,0.6-0.2H104.1z M101,85.8L101,85.8L101,85.8
				L101,85.8L101,85.8z M101.7,85.7L101.7,85.7c0.1,0,0.1,0.1,0.1,0.2l-0.1,0h-0.1c0,0-0.1,0-0.1-0.1L101.7,85.7
				C101.7,85.7,101.7,85.7,101.7,85.7z M103.1,84.4L103.1,84.4L103.1,84.4c0.1,0.1,0,0.1-0.1,0.2L103.1,84.4
				C103.1,84.5,103.1,84.5,103.1,84.4z M103.3,84.6L103.3,84.6L103.3,84.6C103.3,84.7,103.3,84.7,103.3,84.6L103.3,84.6z
				 M103.5,85.6L103.5,85.6l0.1,0.2C103.6,85.7,103.5,85.7,103.5,85.6L103.5,85.6z M103.7,85.7L103.7,85.7c0.1,0,0.2,0.1,0.2,0.2h0
				c-0.1,0-0.1-0.1-0.2-0.1V85.7z M104.7,85.7C104.7,85.7,104.7,85.7,104.7,85.7L104.7,85.7L104.7,85.7L104.7,85.7z M105.1,85.6
				L105.1,85.6L105.1,85.6c0.1,0.1,0.1,0.1,0,0.1l0,0.1v0c-0.1,0-0.1-0.1-0.1-0.1L105.1,85.6C105.1,85.7,105.1,85.6,105.1,85.6z"/>
		</g>
	</g>
</g>
</svg>
