<?xml version="1.0" encoding="utf-8"?>
<!-- Generator: Adobe Illustrator 17.0.0, SVG Export Plug-In . SVG Version: 6.00 Build 0)  -->
<!DOCTYPE svg PUBLIC "-//W3C//DTD SVG 1.1//EN" "http://www.w3.org/Graphics/SVG/1.1/DTD/svg11.dtd" [
	<!ENTITY ns_flows "http://ns.adobe.com/Flows/1.0/">
	<!ENTITY ns_extend "http://ns.adobe.com/Extensibility/1.0/">
	<!ENTITY ns_ai "http://ns.adobe.com/AdobeIllustrator/10.0/">
	<!ENTITY ns_graphs "http://ns.adobe.com/Graphs/1.0/">
]>
<svg version="1.1" id="Layer_1" xmlns:x="&ns_extend;" xmlns:i="&ns_ai;" xmlns:graph="&ns_graphs;"
	 xmlns="http://www.w3.org/2000/svg" xmlns:xlink="http://www.w3.org/1999/xlink" xmlns:a="http://ns.adobe.com/AdobeSVGViewerExtensions/3.0/"
	 x="0px" y="0px" width="40px" height="40px" viewBox="0 0 40 40" enable-background="new 0 0 40 40" xml:space="preserve">
<radialGradient id="SVGID_1_" cx="-75.4708" cy="-153.5917" r="61.3287" gradientTransform="matrix(0.8784 0 0 0.8784 86.5997 183.9132)" gradientUnits="userSpaceOnUse">
	<stop  offset="0" style="stop-color:#3C5A99"/>
	<stop  offset="0.301" style="stop-color:#3C5A99"/>
	<stop  offset="1" style="stop-color:#6483C2"/>
	<a:midPointStop  offset="0" style="stop-color:#3C5A99"/>
	<a:midPointStop  offset="0.5" style="stop-color:#3C5A99"/>
	<a:midPointStop  offset="0.301" style="stop-color:#3C5A99"/>
	<a:midPointStop  offset="0.5" style="stop-color:#3C5A99"/>
	<a:midPointStop  offset="1" style="stop-color:#6483C2"/>
</radialGradient>
<path fill="url(#SVGID_1_)" d="M40,31.8c0,4.5-3.7,8.2-8.2,8.2H8.2C3.7,40,0,36.3,0,31.8V8.2C0,3.7,3.7,0,8.2,0h23.6
	C36.3,0,40,3.7,40,8.2V31.8z"/>
<path fill="#FFFFFF" d="M30.8,11h3.7V5.2h-4.6l0,0h-0.9c0,0-3.5-0.1-5.7,2.8c0,0-1.5,1.4-1.5,5.6h0v4.3h-5.5v6.2h5.5V40H28V24.1h5.4
	l0.8-6.2H28v-4.3h0C28,13.1,28.2,11,30.8,11z"/>
</svg>
