<?xml version="1.0" encoding="utf-8"?>
<!-- Generator: Adobe Illustrator 17.0.0, SVG Export Plug-In . SVG Version: 6.00 Build 0)  -->
<!DOCTYPE svg PUBLIC "-//W3C//DTD SVG 1.1//EN" "http://www.w3.org/Graphics/SVG/1.1/DTD/svg11.dtd" [
	<!ENTITY ns_flows "http://ns.adobe.com/Flows/1.0/">
	<!ENTITY ns_extend "http://ns.adobe.com/Extensibility/1.0/">
	<!ENTITY ns_ai "http://ns.adobe.com/AdobeIllustrator/10.0/">
	<!ENTITY ns_graphs "http://ns.adobe.com/Graphs/1.0/">
]>
<svg version="1.1" id="Layer_1" xmlns:x="&ns_extend;" xmlns:i="&ns_ai;" xmlns:graph="&ns_graphs;"
	 xmlns="http://www.w3.org/2000/svg" xmlns:xlink="http://www.w3.org/1999/xlink" xmlns:a="http://ns.adobe.com/AdobeSVGViewerExtensions/3.0/"
	 x="0px" y="0px" width="40px" height="40px" viewBox="0 0 40 40" enable-background="new 0 0 40 40" xml:space="preserve">
<g>
	<path fill="#DC4739" d="M40,31.8c0,4.5-3.7,8.2-8.2,8.2H8.2C3.7,40,0,36.3,0,31.8V8.2C0,3.7,3.7,0,8.2,0h23.6C36.3,0,40,3.7,40,8.2
		V31.8z"/>
	<g>
		<path fill="#FFFFFF" d="M23.7,18.5L23.7,18.5h-3.6h-5.8v3.4h5.7c-0.8,2.4-3.1,4.2-5.7,4.2c-3.4,0-6.1-2.8-6.1-6.2
			c0-3.4,2.7-6.2,6.1-6.2c1.5,0,2.8,0.5,3.9,1.4h0.2l2.5-2.5c-1.7-1.6-4-2.6-6.5-2.6c-5.4,0-9.7,4.4-9.7,9.8c0,5.4,4.3,9.8,9.7,9.8
			c0.7,0,1.4-0.1,2.1-0.2c1.4-0.3,2.7-0.9,3.8-1.8c1.1-0.9,2-2,2.7-3.2c0.3-0.6,0.6-1.3,0.8-2c0.2-0.9,0.2-1.7,0.2-2.6
			C23.7,19.4,23.7,19,23.7,18.5z"/>
		<rect x="29.7" y="15.6" fill="#FFFFFF" width="2.8" height="8.5"/>
		<rect x="26.9" y="18.5" fill="#FFFFFF" width="8.5" height="2.8"/>
	</g>
</g>
</svg>
