<?xml version="1.0" encoding="utf-8"?>
<!-- Generator: Adobe Illustrator 17.0.0, SVG Export Plug-In . SVG Version: 6.00 Build 0)  -->
<!DOCTYPE svg PUBLIC "-//W3C//DTD SVG 1.1//EN" "http://www.w3.org/Graphics/SVG/1.1/DTD/svg11.dtd" [
	<!ENTITY ns_flows "http://ns.adobe.com/Flows/1.0/">
	<!ENTITY ns_extend "http://ns.adobe.com/Extensibility/1.0/">
	<!ENTITY ns_ai "http://ns.adobe.com/AdobeIllustrator/10.0/">
	<!ENTITY ns_graphs "http://ns.adobe.com/Graphs/1.0/">
]>
<svg version="1.1" id="Layer_1" xmlns:x="&ns_extend;" xmlns:i="&ns_ai;" xmlns:graph="&ns_graphs;"
	 xmlns="http://www.w3.org/2000/svg" xmlns:xlink="http://www.w3.org/1999/xlink" xmlns:a="http://ns.adobe.com/AdobeSVGViewerExtensions/3.0/"
	 x="0px" y="0px" width="40px" height="40px" viewBox="0 0 40 40" enable-background="new 0 0 40 40" xml:space="preserve">
<g>
	
		<radialGradient id="SVGID_1_" cx="-85.2456" cy="-160.305" r="60.3414" gradientTransform="matrix(0.8784 0 0 0.8784 86.5997 183.9132)" gradientUnits="userSpaceOnUse">
		<stop  offset="9.693880e-02" style="stop-color:#FFD87A"/>
		<stop  offset="0.1426" style="stop-color:#FCCE78"/>
		<stop  offset="0.2263" style="stop-color:#F5B471"/>
		<stop  offset="0.3378" style="stop-color:#EB8D65"/>
		<stop  offset="0.449" style="stop-color:#E36058"/>
		<stop  offset="0.6786" style="stop-color:#CD3694"/>
		<stop  offset="1" style="stop-color:#6668B0"/>
		<a:midPointStop  offset="9.693880e-02" style="stop-color:#FFD87A"/>
		<a:midPointStop  offset="0.5725" style="stop-color:#FFD87A"/>
		<a:midPointStop  offset="0.449" style="stop-color:#E36058"/>
		<a:midPointStop  offset="0.5" style="stop-color:#E36058"/>
		<a:midPointStop  offset="0.6786" style="stop-color:#CD3694"/>
		<a:midPointStop  offset="0.5" style="stop-color:#CD3694"/>
		<a:midPointStop  offset="1" style="stop-color:#6668B0"/>
	</radialGradient>
	<path fill="url(#SVGID_1_)" d="M40,31.8c0,4.5-3.7,8.2-8.2,8.2H8.2C3.7,40,0,36.3,0,31.8V8.2C0,3.7,3.7,0,8.2,0h23.6
		C36.3,0,40,3.7,40,8.2V31.8z"/>
	<path fill="#FFFFFF" d="M25.8,4.9H14.2c-5.1,0-9.3,4.2-9.3,9.3v11.6c0,5.1,4.2,9.3,9.3,9.3h11.6c5.1,0,9.3-4.2,9.3-9.3V14.2
		C35.1,9.1,30.9,4.9,25.8,4.9z M32.2,24.7c0,4.1-3.4,7.5-7.5,7.5h-9.4c-4.1,0-7.5-3.4-7.5-7.5v-9.4c0-4.1,3.4-7.5,7.5-7.5h9.4
		c4.1,0,7.5,3.4,7.5,7.5V24.7z"/>
	<path fill="#FFFFFF" d="M20.4,12.1c-4.4,0-7.9,3.6-7.9,7.9c0,4.4,3.6,7.9,7.9,7.9c4.4,0,7.9-3.6,7.9-7.9
		C28.4,15.7,24.8,12.1,20.4,12.1z M20.4,24.8c-2.6,0-4.8-2.1-4.8-4.8c0-2.6,2.1-4.8,4.8-4.8c2.6,0,4.8,2.1,4.8,4.8
		C25.2,22.7,23,24.8,20.4,24.8z"/>
	<circle fill="#FFFFFF" cx="27.8" cy="12" r="2"/>
</g>
</svg>
