<?xml version="1.0" encoding="utf-8"?>
<!-- Generator: Adobe Illustrator 17.0.0, SVG Export Plug-In . SVG Version: 6.00 Build 0)  -->
<!DOCTYPE svg PUBLIC "-//W3C//DTD SVG 1.1//EN" "http://www.w3.org/Graphics/SVG/1.1/DTD/svg11.dtd" [
	<!ENTITY ns_flows "http://ns.adobe.com/Flows/1.0/">
	<!ENTITY ns_extend "http://ns.adobe.com/Extensibility/1.0/">
	<!ENTITY ns_ai "http://ns.adobe.com/AdobeIllustrator/10.0/">
	<!ENTITY ns_graphs "http://ns.adobe.com/Graphs/1.0/">
]>
<svg version="1.1" id="Layer_1" xmlns:x="&ns_extend;" xmlns:i="&ns_ai;" xmlns:graph="&ns_graphs;"
	 xmlns="http://www.w3.org/2000/svg" xmlns:xlink="http://www.w3.org/1999/xlink" xmlns:a="http://ns.adobe.com/AdobeSVGViewerExtensions/3.0/"
	 x="0px" y="0px" width="40px" height="40px" viewBox="0 0 40 40" enable-background="new 0 0 40 40" xml:space="preserve">
<g>
	<path fill="#85C65F" d="M40,31.8c0,4.5-3.7,8.2-8.2,8.2H8.2C3.7,40,0,36.3,0,31.8V8.2C0,3.7,3.7,0,8.2,0h23.6C36.3,0,40,3.7,40,8.2
		V31.8z"/>
	<g>
		<g>
			<linearGradient id="SVGID_1_" gradientUnits="userSpaceOnUse" x1="5.0788" y1="19.9991" x2="34.9211" y2="19.9991">
				<stop  offset="0" style="stop-color:#E6E5E7"/>
				<stop  offset="0.1414" style="stop-color:#F2F1F2"/>
				<stop  offset="0.336" style="stop-color:#FBFBFB"/>
				<stop  offset="0.7258" style="stop-color:#FFFFFF"/>
				<a:midPointStop  offset="0" style="stop-color:#E6E5E7"/>
				<a:midPointStop  offset="0.172" style="stop-color:#E6E5E7"/>
				<a:midPointStop  offset="0.7258" style="stop-color:#FFFFFF"/>
			</linearGradient>
			<path fill="url(#SVGID_1_)" d="M28.2,28.8c-2.1,0-4.4-1.1-5.8-2.9L22,25.4l-2,3l-2-3l-0.4,0.5c-1.4,1.8-3.7,2.9-5.8,2.9
				c-4,0-6.7-2.8-6.7-6.7c0-1,0.5-2.2,0.9-3c0.3-0.7,0.7-1.3,1.1-1.9l0.4-0.5l-0.6-0.2c-1-0.3-1.4-0.8-1.6-1.2h4.7l0.1-0.1
				c2.8-2.8,5.7-4,9.9-4c4.2,0,7.1,1.1,9.9,4l0.1,0.1h4.7c-0.2,0.4-0.6,0.9-1.6,1.2l-0.6,0.2l0.4,0.5c0.4,0.6,0.8,1.3,1.2,2
				c0.5,1.1,0.8,2.1,0.8,2.9C34.9,26,32.2,28.8,28.2,28.8z M28.2,16.5c-0.9,0-1.7,0.2-2.5,0.6c-1.9,1-3,2.9-3,5
				c0,3.1,2.5,5.6,5.6,5.6s5.6-2.5,5.6-5.6c0-1.5-0.6-2.9-1.7-4C31,17,29.6,16.5,28.2,16.5z M11.8,16.5c-1.4,0-2.7,0.5-3.7,1.4
				C6.9,19,6.2,20.5,6.2,22c0,3.1,2.5,5.6,5.6,5.6s5.6-2.5,5.6-5.6c0-2.1-1.2-4.1-3.1-5C13.5,16.7,12.6,16.5,11.8,16.5z M20,11.4
				c-5.2,0-8.4,3.1-8.5,3.2l-0.8,0.8h1.1c1.5,0,3.2,0.8,4.6,2.2c2,2,3.2,4.9,3.2,7.6h0.9c0-2.7,1.2-5.5,3.1-7.5
				c1.4-1.5,3.1-2.3,4.6-2.3h1.1l-0.8-0.8C28.4,14.4,25.2,11.4,20,11.4z"/>
			<path fill="#FFFFFF" d="M33.8,15.8c-0.2,0.1-0.4,0.2-0.7,0.3l-1.3,0.3l0.8,1.1c0.4,0.6,0.8,1.3,1.1,1.9c0.5,1,0.7,2,0.7,2.7
				c0,3.8-2.5,6.3-6.3,6.3c-2,0-4.1-1.1-5.5-2.7L22,24.6l-0.7,1l-1.3,2l-1.3-2l-0.7-1l-0.8,0.9c-1.4,1.7-3.5,2.7-5.5,2.7
				c-3.8,0-6.3-2.5-6.3-6.3c0-0.7,0.3-1.7,0.8-2.8C6.6,18.6,7,18,7.4,17.5l0.8-1.1l-1.3-0.3c-0.3-0.1-0.5-0.2-0.7-0.3h3.6h0.4h1.7
				c1.1,0,2.2,0.4,3.3,1.2c-0.2-0.1-0.4-0.3-0.7-0.4c-0.8-0.4-1.7-0.6-2.6-0.6c-1.5,0-2.9,0.5-4,1.5c-1.3,1.1-2,2.8-2,4.5
				c0,3.3,2.7,6,6,6c3.3,0,6-2.7,6-6c0-1.2-0.3-2.3-0.9-3.2c1.4,1.8,2.2,4.1,2.2,6.3h1.8c0-2.2,0.8-4.5,2.2-6.3
				c-0.6,0.9-0.9,2.1-0.9,3.2c0,3.3,2.7,6,6,6c3.3,0,6-2.7,6-6c0-1.6-0.7-3.2-1.8-4.3c-1.1-1.1-2.6-1.7-4.2-1.7
				c-1,0-1.9,0.2-2.7,0.7c-0.2,0.1-0.4,0.2-0.5,0.3c1.1-0.8,2.2-1.2,3.3-1.2h1.7h0.4H33.8 M20,10.8c-4.1,0-7.2,1-10.2,4.1H4.6
				c0,0,0,1.5,2.1,2.1c-0.4,0.5-0.8,1.2-1.1,1.9c-0.5,1-0.9,2.2-0.9,3.2c0,4.2,2.9,7.2,7.2,7.2c2.4,0,4.7-1.3,6.1-3.1l2.1,3.1
				l2.1-3.1c1.4,1.7,3.7,3.1,6.1,3.1c4.2,0,7.2-2.9,7.2-7.2c0-0.9-0.4-2-0.8-3c-0.4-0.8-0.8-1.5-1.2-2.1c2-0.5,2.1-2.1,2.1-2.1h-5.1
				C27.2,11.8,24.1,10.8,20,10.8L20,10.8z M20,25.1c0-3-1.4-5.9-3.3-7.9c-1.4-1.5-3.2-2.4-4.9-2.4c0,0,3.1-3.1,8.2-3.1
				c5.1,0,8.2,3.1,8.2,3.1c-1.7,0-3.5,0.9-4.9,2.4C21.3,19.3,20,22.2,20,25.1L20,25.1z M28.2,27.2c-2.8,0-5.1-2.3-5.1-5.1
				c0-2,1.1-3.7,2.8-4.6c0.7-0.4,1.5-0.6,2.3-0.6c1.4,0,2.6,0.6,3.6,1.4c1,0.9,1.6,2.2,1.6,3.7C33.3,24.9,31,27.2,28.2,27.2
				L28.2,27.2z M11.8,27.2c-2.8,0-5.1-2.3-5.1-5.1c0-1.5,0.7-2.9,1.7-3.8c0.9-0.8,2.1-1.3,3.4-1.3c0.8,0,1.6,0.2,2.2,0.5
				c1.7,0.8,2.9,2.6,2.9,4.6C16.9,24.9,14.6,27.2,11.8,27.2L11.8,27.2z"/>
		</g>
		<g id="XMLID_19_">
			<linearGradient id="SVGID_2_" gradientUnits="userSpaceOnUse" x1="27.6194" y1="22.0469" x2="28.7737" y2="22.0469">
				<stop  offset="0" style="stop-color:#E6E5E7"/>
				<stop  offset="0.1414" style="stop-color:#F2F1F2"/>
				<stop  offset="0.336" style="stop-color:#FBFBFB"/>
				<stop  offset="0.7258" style="stop-color:#FFFFFF"/>
				<a:midPointStop  offset="0" style="stop-color:#E6E5E7"/>
				<a:midPointStop  offset="0.172" style="stop-color:#E6E5E7"/>
				<a:midPointStop  offset="0.7258" style="stop-color:#FFFFFF"/>
			</linearGradient>
			<circle fill="url(#SVGID_2_)" cx="28.2" cy="22" r="0.6"/>
			<path fill="#FFFFFF" d="M28.2,21c-0.6,0-1,0.5-1,1c0,0.6,0.5,1,1,1c0.6,0,1-0.5,1-1C29.2,21.5,28.8,21,28.2,21L28.2,21z"/>
		</g>
		<g>
			<linearGradient id="SVGID_3_" gradientUnits="userSpaceOnUse" x1="25.5696" y1="22.0484" x2="30.8244" y2="22.0484">
				<stop  offset="0" style="stop-color:#E6E5E7"/>
				<stop  offset="0.1414" style="stop-color:#F2F1F2"/>
				<stop  offset="0.336" style="stop-color:#FBFBFB"/>
				<stop  offset="0.7258" style="stop-color:#FFFFFF"/>
				<a:midPointStop  offset="0" style="stop-color:#E6E5E7"/>
				<a:midPointStop  offset="0.172" style="stop-color:#E6E5E7"/>
				<a:midPointStop  offset="0.7258" style="stop-color:#FFFFFF"/>
			</linearGradient>
			<path fill="url(#SVGID_3_)" d="M28.2,24.7c-1.4,0-2.6-1.2-2.6-2.6c0-1.4,1.2-2.6,2.6-2.6c1.4,0,2.6,1.2,2.6,2.6
				C30.8,23.5,29.6,24.7,28.2,24.7z M28.2,19.6c-1.4,0-2.5,1.1-2.5,2.5c0,1.4,1.1,2.5,2.5,2.5s2.5-1.1,2.5-2.5
				C30.7,20.7,29.6,19.6,28.2,19.6z"/>
			<path fill="#FFFFFF" d="M28.2,19c-1.7,0-3.1,1.4-3.1,3.1c0,1.7,1.4,3.1,3.1,3.1c1.7,0,3.1-1.4,3.1-3.1C31.3,20.4,29.9,19,28.2,19
				L28.2,19z M28.2,24.1c-1.1,0-2.1-0.9-2.1-2c0-1.1,0.9-2.1,2.1-2.1c1.1,0,2.1,0.9,2.1,2.1C30.2,23.2,29.3,24.1,28.2,24.1
				L28.2,24.1z"/>
		</g>
		<g id="XMLID_6_">
			<linearGradient id="SVGID_4_" gradientUnits="userSpaceOnUse" x1="11.2268" y1="22.0469" x2="12.3816" y2="22.0469">
				<stop  offset="0" style="stop-color:#E6E5E7"/>
				<stop  offset="0.1414" style="stop-color:#F2F1F2"/>
				<stop  offset="0.336" style="stop-color:#FBFBFB"/>
				<stop  offset="0.7258" style="stop-color:#FFFFFF"/>
				<a:midPointStop  offset="0" style="stop-color:#E6E5E7"/>
				<a:midPointStop  offset="0.172" style="stop-color:#E6E5E7"/>
				<a:midPointStop  offset="0.7258" style="stop-color:#FFFFFF"/>
			</linearGradient>
			<circle fill="url(#SVGID_4_)" cx="11.8" cy="22" r="0.6"/>
			<path fill="#FFFFFF" d="M11.8,21c-0.6,0-1,0.5-1,1c0,0.6,0.5,1,1,1c0.6,0,1-0.5,1-1C12.8,21.5,12.4,21,11.8,21L11.8,21z"/>
		</g>
		<g>
			<linearGradient id="SVGID_5_" gradientUnits="userSpaceOnUse" x1="9.1765" y1="22.0484" x2="14.4319" y2="22.0484">
				<stop  offset="0" style="stop-color:#E6E5E7"/>
				<stop  offset="0.1414" style="stop-color:#F2F1F2"/>
				<stop  offset="0.336" style="stop-color:#FBFBFB"/>
				<stop  offset="0.7258" style="stop-color:#FFFFFF"/>
				<a:midPointStop  offset="0" style="stop-color:#E6E5E7"/>
				<a:midPointStop  offset="0.172" style="stop-color:#E6E5E7"/>
				<a:midPointStop  offset="0.7258" style="stop-color:#FFFFFF"/>
			</linearGradient>
			<path fill="url(#SVGID_5_)" d="M11.8,24.7c-1.4,0-2.6-1.2-2.6-2.6c0-1.4,1.2-2.6,2.6-2.6s2.6,1.2,2.6,2.6
				C14.4,23.5,13.3,24.7,11.8,24.7z M11.8,19.6c-1.4,0-2.5,1.1-2.5,2.5c0,1.4,1.1,2.5,2.5,2.5c1.4,0,2.5-1.1,2.5-2.5
				C14.3,20.7,13.2,19.6,11.8,19.6z"/>
			<path fill="#FFFFFF" d="M11.8,19c-1.7,0-3.1,1.4-3.1,3.1c0,1.7,1.4,3.1,3.1,3.1c1.7,0,3.1-1.4,3.1-3.1C14.9,20.4,13.5,19,11.8,19
				L11.8,19z M11.8,24.1c-1.1,0-2.1-0.9-2.1-2c0-1.1,0.9-2.1,2.1-2.1c1.1,0,2.1,0.9,2.1,2.1C13.9,23.2,12.9,24.1,11.8,24.1
				L11.8,24.1z"/>
		</g>
	</g>
</g>
</svg>
