<?xml version="1.0" encoding="utf-8"?>
<!-- Generator: Adobe Illustrator 17.0.0, SVG Export Plug-In . SVG Version: 6.00 Build 0)  -->
<!DOCTYPE svg PUBLIC "-//W3C//DTD SVG 1.1//EN" "http://www.w3.org/Graphics/SVG/1.1/DTD/svg11.dtd" [
	<!ENTITY ns_flows "http://ns.adobe.com/Flows/1.0/">
	<!ENTITY ns_extend "http://ns.adobe.com/Extensibility/1.0/">
	<!ENTITY ns_ai "http://ns.adobe.com/AdobeIllustrator/10.0/">
	<!ENTITY ns_graphs "http://ns.adobe.com/Graphs/1.0/">
]>
<svg version="1.1" id="Layer_1" xmlns:x="&ns_extend;" xmlns:i="&ns_ai;" xmlns:graph="&ns_graphs;"
	 xmlns="http://www.w3.org/2000/svg" xmlns:xlink="http://www.w3.org/1999/xlink" xmlns:a="http://ns.adobe.com/AdobeSVGViewerExtensions/3.0/"
	 x="0px" y="0px" width="37.9px" height="37.5px" viewBox="0 0 37.9 37.5" enable-background="new 0 0 37.9 37.5"
	 xml:space="preserve">
<path fill="#99262C" d="M28.1,23.4c-2.2-0.5-5-1.9-6-3.5c-0.6-0.9-0.6-2-0.2-2.9c0,0,0.1-0.1,0.1-0.2c0-0.2,0-0.5,0.2-0.8
	c0,0,0,0,0,0H11c0,0,0,0,0,0v0c0.3,0.4,0.5,0.7,0.6,1c0.5,0.9,0.4,2-0.2,2.9c-1,1.7-3.8,3-6,3.5L4.8,33.6c-0.1,1.1,0.7,2,1.6,2h20.7
	c1,0,1.7-0.9,1.6-2L28.1,23.4z M13.4,30.4h-1.9c-0.4,0-0.6-0.3-0.6-0.6c0-0.4,0.3-0.6,0.6-0.6h1.9c0.4,0,0.6,0.3,0.6,0.6
	C14,30.1,13.7,30.4,13.4,30.4L13.4,30.4z M13.4,28h-1.9c-0.4,0-0.6-0.3-0.6-0.6c0-0.4,0.3-0.6,0.6-0.6h1.9c0.4,0,0.6,0.3,0.6,0.6
	C14,27.7,13.7,28,13.4,28L13.4,28z M13.4,25.5h-1.9c-0.4,0-0.6-0.3-0.6-0.6c0-0.4,0.3-0.6,0.6-0.6h1.9c0.4,0,0.6,0.3,0.6,0.6
	C14,25.2,13.7,25.5,13.4,25.5L13.4,25.5z M17.7,30.4h-1.9c-0.4,0-0.6-0.3-0.6-0.6c0-0.4,0.3-0.6,0.6-0.6h1.9c0.4,0,0.6,0.3,0.6,0.6
	C18.4,30.1,18.1,30.4,17.7,30.4L17.7,30.4z M17.7,28h-1.9c-0.4,0-0.6-0.3-0.6-0.6c0-0.4,0.3-0.6,0.6-0.6h1.9c0.4,0,0.6,0.3,0.6,0.6
	C18.4,27.7,18.1,28,17.7,28L17.7,28z M17.7,25.5h-1.9c-0.4,0-0.6-0.3-0.6-0.6c0-0.4,0.3-0.6,0.6-0.6h1.9c0.4,0,0.6,0.3,0.6,0.6
	C18.4,25.2,18.1,25.5,17.7,25.5L17.7,25.5z M22.1,30.4h-1.9c-0.4,0-0.6-0.3-0.6-0.6c0-0.4,0.3-0.6,0.6-0.6h1.9
	c0.4,0,0.6,0.3,0.6,0.6C22.7,30.1,22.5,30.4,22.1,30.4L22.1,30.4z M22.1,28h-1.9c-0.4,0-0.6-0.3-0.6-0.6c0-0.4,0.3-0.6,0.6-0.6h1.9
	c0.4,0,0.6,0.3,0.6,0.6C22.7,27.7,22.5,28,22.1,28L22.1,28z M22.1,25.5h-1.9c-0.4,0-0.6-0.3-0.6-0.6c0-0.4,0.3-0.6,0.6-0.6h1.9
	c0.4,0,0.6,0.3,0.6,0.6C22.7,25.2,22.5,25.5,22.1,25.5L22.1,25.5z M29.8,11.8c0,0.2,0,0.4,0,0.5c-0.2,1.1-0.7,2-1,3
	c-0.4,1.3-7,0.3-6.6-1.4c0.2-0.6,0.9-2.4,0.9-3.1c-0.1-0.6-0.9-0.8-1.6-0.7c-1.8,0.3-4,1-5.9,1.4c0,0-0.1,0-0.2,0
	c-0.1,0-0.1,0-0.2,0v0c-1.9,0.4-4.2,0.9-5.9,1.4c-0.7,0.2-1.3,0.8-1.1,1.4c0.2,0.6,1.7,1.9,2.2,2.3c1.1,1.3-4.3,5.2-5.2,4.2
	c-0.8-0.7-1.7-1.4-2.3-2.2c-0.1-0.1-0.1-0.3-0.2-0.5C0.7,14.6,3.2,9.8,8.2,8.2C10.1,7.5,12,7,13.9,6.5v0c0.1,0,0.1,0,0.2,0
	c0.1,0,0.1,0,0.2,0l0,0c2-0.4,3.9-0.8,5.9-1.1C25.4,4.4,29.7,7.6,29.8,11.8L29.8,11.8z M35.5,16.1l-1.4-0.7
	c2.1-4.5,0.2-9.9-4.3-12.1L30.4,2C35.7,4.5,38,10.8,35.5,16.1L35.5,16.1z M33.1,15l-1.4-0.7c1.5-3.2,0.1-7-3.1-8.5l0.6-1.4
	C33.2,6.3,35,11,33.1,15L33.1,15z M33.1,15"/>
<rect x="2" y="2" fill="none" width="35.1" height="34"/>
</svg>
