<?xml version="1.0" encoding="utf-8"?>
<!-- Generator: Adobe Illustrator 17.0.0, SVG Export Plug-In . SVG Version: 6.00 Build 0)  -->
<!DOCTYPE svg PUBLIC "-//W3C//DTD SVG 1.1//EN" "http://www.w3.org/Graphics/SVG/1.1/DTD/svg11.dtd" [
	<!ENTITY ns_flows "http://ns.adobe.com/Flows/1.0/">
	<!ENTITY ns_extend "http://ns.adobe.com/Extensibility/1.0/">
	<!ENTITY ns_ai "http://ns.adobe.com/AdobeIllustrator/10.0/">
	<!ENTITY ns_graphs "http://ns.adobe.com/Graphs/1.0/">
]>
<svg version="1.1" id="Layer_1" xmlns:x="&ns_extend;" xmlns:i="&ns_ai;" xmlns:graph="&ns_graphs;"
	 xmlns="http://www.w3.org/2000/svg" xmlns:xlink="http://www.w3.org/1999/xlink" xmlns:a="http://ns.adobe.com/AdobeSVGViewerExtensions/3.0/"
	 x="0px" y="0px" width="26.4px" height="27.1px" viewBox="0 0 26.4 27.1" enable-background="new 0 0 26.4 27.1"
	 xml:space="preserve">
<g>
	<g>
		<path fill="#FFFFFF" d="M227.3,149.3L225,147l-6,6c-0.4,0.4-1,0.4-1.4,0l-2.2-2.2c-0.4-0.4-0.4-1,0-1.4l6-6l-2.4-2.4
			c-0.4-0.4-0.3-0.7,0.3-0.8l8.7-0.9c0.5-0.1,0.9,0.3,0.9,0.9l-0.9,8.7C228,149.5,227.7,149.7,227.3,149.3L227.3,149.3z
			 M224.8,150.4l3.4,3.4c0.6,0.6,0.6,1.5,0,2.1l-7,7c-0.6,0.6-1.5,0.6-2.1,0l-13.5-13.5c-0.6-0.6-0.6-1.5,0-2.1l7-7
			c0.6-0.6,1.5-0.6,2.1,0l3.3,3.3l-0.7,0.7l-2.7-2.7l-7.6,7.6l12,12l7.6-7.6l-2.5-2.5L224.8,150.4z M208.7,145.9
			c0.1,0.1,0.2,0.1,0.3,0l2.2-2.2c0.1-0.1,0.1-0.2,0-0.3c-0.1-0.1-0.2-0.1-0.3,0l-2.2,2.2C208.7,145.8,208.7,145.9,208.7,145.9
			L208.7,145.9z M224.2,157.9c-0.3-0.3-0.8-0.3-1.1,0c-0.3,0.3-0.3,0.8,0,1.1c0.3,0.3,0.8,0.3,1.1,0S224.5,158.2,224.2,157.9
			L224.2,157.9z M224.2,157.9"/>
	</g>
</g>
<g>
	<g>
		<path fill="#FFFFFF" d="M227.3,149.3L225,147l-6,6c-0.4,0.4-1,0.4-1.4,0l-2.2-2.2c-0.4-0.4-0.4-1,0-1.4l6-6l-2.4-2.4
			c-0.4-0.4-0.3-0.7,0.3-0.8l8.7-0.9c0.5-0.1,0.9,0.3,0.9,0.9l-0.9,8.7C228,149.5,227.7,149.7,227.3,149.3L227.3,149.3z
			 M224.8,150.4l3.4,3.4c0.6,0.6,0.6,1.5,0,2.1l-7,7c-0.6,0.6-1.5,0.6-2.1,0l-13.5-13.5c-0.6-0.6-0.6-1.5,0-2.1l7-7
			c0.6-0.6,1.5-0.6,2.1,0l3.3,3.3l-0.7,0.7l-2.7-2.7l-7.6,7.6l12,12l7.6-7.6l-2.5-2.5L224.8,150.4z M208.7,145.9
			c0.1,0.1,0.2,0.1,0.3,0l2.2-2.2c0.1-0.1,0.1-0.2,0-0.3c-0.1-0.1-0.2-0.1-0.3,0l-2.2,2.2C208.7,145.8,208.7,145.9,208.7,145.9
			L208.7,145.9z M224.2,157.9c-0.3-0.3-0.8-0.3-1.1,0c-0.3,0.3-0.3,0.8,0,1.1c0.3,0.3,0.8,0.3,1.1,0S224.5,158.2,224.2,157.9
			L224.2,157.9z M224.2,157.9"/>
	</g>
</g>
<g>
	<g>
		<path fill="#FFFFFF" d="M227.3,149.3L225,147l-6,6c-0.4,0.4-1,0.4-1.4,0l-2.2-2.2c-0.4-0.4-0.4-1,0-1.4l6-6l-2.4-2.4
			c-0.4-0.4-0.3-0.7,0.3-0.8l8.7-0.9c0.5-0.1,0.9,0.3,0.9,0.9l-0.9,8.7C228,149.5,227.7,149.7,227.3,149.3L227.3,149.3z
			 M224.8,150.4l3.4,3.4c0.6,0.6,0.6,1.5,0,2.1l-7,7c-0.6,0.6-1.5,0.6-2.1,0l-13.5-13.5c-0.6-0.6-0.6-1.5,0-2.1l7-7
			c0.6-0.6,1.5-0.6,2.1,0l3.3,3.3l-0.7,0.7l-2.7-2.7l-7.6,7.6l12,12l7.6-7.6l-2.5-2.5L224.8,150.4z M208.7,145.9
			c0.1,0.1,0.2,0.1,0.3,0l2.2-2.2c0.1-0.1,0.1-0.2,0-0.3c-0.1-0.1-0.2-0.1-0.3,0l-2.2,2.2C208.7,145.8,208.7,145.9,208.7,145.9
			L208.7,145.9z M224.2,157.9c-0.3-0.3-0.8-0.3-1.1,0c-0.3,0.3-0.3,0.8,0,1.1c0.3,0.3,0.8,0.3,1.1,0S224.5,158.2,224.2,157.9
			L224.2,157.9z M224.2,157.9"/>
	</g>
</g>
<g>
	<g>
		<path fill="#FFFFFF" d="M23.2,11.3L20.8,9l-6,6c-0.4,0.4-1,0.4-1.4,0l-2.2-2.2c-0.4-0.4-0.4-1,0-1.4l6-6l-2.4-2.4
			c-0.4-0.4-0.3-0.7,0.3-0.8l8.7-0.9c0.5-0.1,0.9,0.3,0.9,0.9l-0.9,8.7C23.9,11.6,23.5,11.7,23.2,11.3L23.2,11.3z M20.6,12.5
			l3.4,3.4c0.6,0.6,0.6,1.5,0,2.1l-7,7c-0.6,0.6-1.5,0.6-2.1,0L1.5,11.5c-0.6-0.6-0.6-1.5,0-2.1l7-7c0.6-0.6,1.5-0.6,2.1,0l3.3,3.3
			l-0.7,0.7l-2.7-2.7l-7.6,7.6l12,12l7.6-7.6l-2.5-2.5L20.6,12.5z M4.6,8c0.1,0.1,0.2,0.1,0.3,0l2.2-2.2c0.1-0.1,0.1-0.2,0-0.3
			C7,5.4,6.9,5.4,6.8,5.5L4.6,7.7C4.5,7.8,4.5,7.9,4.6,8L4.6,8z M20.1,19.9c-0.3-0.3-0.8-0.3-1.1,0c-0.3,0.3-0.3,0.8,0,1.1
			c0.3,0.3,0.8,0.3,1.1,0S20.4,20.2,20.1,19.9L20.1,19.9z M20.1,19.9"/>
	</g>
</g>
</svg>
