<?xml version="1.0" encoding="utf-8"?>
<!-- Generator: Adobe Illustrator 17.0.0, SVG Export Plug-In . SVG Version: 6.00 Build 0)  -->
<!DOCTYPE svg PUBLIC "-//W3C//DTD SVG 1.1//EN" "http://www.w3.org/Graphics/SVG/1.1/DTD/svg11.dtd" [
	<!ENTITY ns_flows "http://ns.adobe.com/Flows/1.0/">
	<!ENTITY ns_extend "http://ns.adobe.com/Extensibility/1.0/">
	<!ENTITY ns_ai "http://ns.adobe.com/AdobeIllustrator/10.0/">
	<!ENTITY ns_graphs "http://ns.adobe.com/Graphs/1.0/">
]>
<svg version="1.1" id="Layer_1" xmlns:x="&ns_extend;" xmlns:i="&ns_ai;" xmlns:graph="&ns_graphs;"
	 xmlns="http://www.w3.org/2000/svg" xmlns:xlink="http://www.w3.org/1999/xlink" xmlns:a="http://ns.adobe.com/AdobeSVGViewerExtensions/3.0/"
	 x="0px" y="0px" width="33.6px" height="17.3px" viewBox="0 0 33.6 17.3" enable-background="new 0 0 33.6 17.3"
	 xml:space="preserve">
<path fill="#03A550" d="M12.3,11.4c-0.3,0.7-0.4,1.4-0.6,2.1c-0.8,0-1.8-0.5-2.4-0.9c-0.4-0.3-0.8-0.6-1.2-0.9
	c-0.4-0.3-0.9-0.7-1.3-1C5.9,10,5,9.4,4.1,8.9c0.1,0.5,0.4,1,0.6,1.5c0.8,1.3,1.9,2.4,3.2,3.2c0.6,0.4,1.3,0.8,2,1.1
	c0.4,0.2,1.4,0.8,1.8,0.8l-5.3,0c-3.7-2-5.1-5.6-5.6-7.6C0.7,7.4,0.8,7,1,6.7c0.2-0.3,0.6-0.5,1-0.6c5.2-0.8,8.4,0.5,10.7,4l0.1,0.1
	l-0.1,0.1C12.5,10.7,12.4,11.1,12.3,11.4z"/>
<path fill="#03A550" d="M12.5,14.9l-0.2-0.1l0-0.2c0.5-7.6,7.5-14,15.3-14c1.6,0,3.2,0.2,4.9,0.6c0.7,0.2,1.2,0.9,1,1.6
	c-0.2,1.5-0.8,3.8-2.3,6.3c-2.4,3.9-5.8,5.7-7.3,6.4h-9l0.2-0.4c0.9-0.9,1.6-1.5,2.7-2.1c1.1-0.7,2.2-1.4,3.2-2.2
	C22.1,9.8,23.2,9,24.1,8c0.5-0.5,0.9-1,1.4-1.5c0.2-0.2,0.9-1.3,1.1-1.3c-2.8,0.4-5.3,1.7-7.5,3.3c-1.1,0.8-2.2,1.8-3.1,2.8
	c-0.7,0.9-1.8,1.6-2.4,2.6"/>
</svg>
