<?xml version="1.0" encoding="utf-8"?>
<!-- Generator: Adobe Illustrator 17.0.0, SVG Export Plug-In . SVG Version: 6.00 Build 0)  -->
<!DOCTYPE svg PUBLIC "-//W3C//DTD SVG 1.1//EN" "http://www.w3.org/Graphics/SVG/1.1/DTD/svg11.dtd" [
	<!ENTITY ns_flows "http://ns.adobe.com/Flows/1.0/">
	<!ENTITY ns_extend "http://ns.adobe.com/Extensibility/1.0/">
	<!ENTITY ns_ai "http://ns.adobe.com/AdobeIllustrator/10.0/">
	<!ENTITY ns_graphs "http://ns.adobe.com/Graphs/1.0/">
]>
<svg version="1.1" id="Layer_1" xmlns:x="&ns_extend;" xmlns:i="&ns_ai;" xmlns:graph="&ns_graphs;"
	 xmlns="http://www.w3.org/2000/svg" xmlns:xlink="http://www.w3.org/1999/xlink" xmlns:a="http://ns.adobe.com/AdobeSVGViewerExtensions/3.0/"
	 x="0px" y="0px" width="32px" height="31.5px" viewBox="0 0 32 31.5" enable-background="new 0 0 32 31.5" xml:space="preserve">
<g>
	<g>
		<path fill="#99262C" d="M4.4,21.5c4,4,10,4.6,14.7,1.8c0,0,0.3-0.2,0.6,0.1c1.5,1.5,6.2,6.2,6.2,6.2c1.2,1.2,3,1.5,4.1,0.4
			l0.2-0.2c1.1-1.1,0.8-2.8-0.4-4.1c0,0-4.7-4.7-6.2-6.2c-0.3-0.3-0.1-0.6-0.1-0.6c2.8-4.7,2.2-10.7-1.8-14.7
			c-4.7-4.7-12.5-4.7-17.2,0C-0.3,9.1-0.3,16.8,4.4,21.5L4.4,21.5z M19.4,19.3c-3.5,3.5-9.2,3.5-12.7,0c-3.5-3.5-3.5-9.2,0-12.7
			c3.5-3.5,9.2-3.5,12.7,0C22.9,10.1,22.9,15.8,19.4,19.3L19.4,19.3z M19.4,19.3"/>
	</g>
	<path fill="#99262C" d="M13,8.7c-3.7,0-6.7,3.7-6.7,4.3c0,0.6,3,4.3,6.7,4.3c3.7,0,6.7-3.7,6.7-4.3C19.6,12.4,16.7,8.7,13,8.7
		L13,8.7z M13,16c-1.7,0-3-1.4-3-3c0-1.7,1.4-3,3-3s3,1.4,3,3C16,14.7,14.7,16,13,16L13,16z M13,16"/>
	<path fill="#99262C" d="M11.4,13c0-0.9,0.7-1.5,1.5-1.5c0.9,0,1.5,0.7,1.5,1.5c0,0.9-0.7,1.5-1.5,1.5C12.1,14.5,11.4,13.8,11.4,13
		L11.4,13z M11.4,13"/>
</g>
</svg>
