<?xml version="1.0" encoding="utf-8"?>
<!-- Generator: Adobe Illustrator 17.0.0, SVG Export Plug-In . SVG Version: 6.00 Build 0)  -->
<!DOCTYPE svg PUBLIC "-//W3C//DTD SVG 1.1//EN" "http://www.w3.org/Graphics/SVG/1.1/DTD/svg11.dtd" [
	<!ENTITY ns_flows "http://ns.adobe.com/Flows/1.0/">
	<!ENTITY ns_extend "http://ns.adobe.com/Extensibility/1.0/">
	<!ENTITY ns_ai "http://ns.adobe.com/AdobeIllustrator/10.0/">
	<!ENTITY ns_graphs "http://ns.adobe.com/Graphs/1.0/">
]>
<svg version="1.1" id="Layer_1" xmlns:x="&ns_extend;" xmlns:i="&ns_ai;" xmlns:graph="&ns_graphs;"
	 xmlns="http://www.w3.org/2000/svg" xmlns:xlink="http://www.w3.org/1999/xlink" xmlns:a="http://ns.adobe.com/AdobeSVGViewerExtensions/3.0/"
	 x="0px" y="0px" width="77.4px" height="64.2px" viewBox="11 -63.9 77.4 64.2" enable-background="new 11 -63.9 77.4 64.2"
	 xml:space="preserve">
<g>
	<g>
		<g>
			<defs>
				
					<rect id="SVGID_1_" x="23.4" y="-60.9" transform="matrix(-0.7071 -0.7071 0.7071 -0.7071 109.314 -19.0094)" width="54.7" height="57.6"/>
			</defs>
			<clipPath id="SVGID_2_">
				<use xlink:href="#SVGID_1_"  overflow="visible"/>
			</clipPath>
			<path clip-path="url(#SVGID_2_)" fill="#F3F3F3" d="M87.6-31.4l0.6,0.6c0,0.6-0.6,1.2-1.2,1.2H13.9c-0.6,0-1.2-0.6-1.2-1.2
				c0-0.6,0.6-1.2,1.2-1.2H87C87-32,87.6-32,87.6-31.4L87.6-31.4z"/>
		</g>
	</g>
	<path fill="#F3F3F3" d="M87.6-31.4l0.6,0.6c0,0.6,0,0.6-0.6,0.6L58.8-1.5c-0.6,0.6-1.2,0.6-1.7,0s-0.6-1.2,0-1.7l28.2-28.2
		L57.1-59.7c-0.6-0.6-0.6-1.2,0-1.7c0.6-0.6,1.2-0.6,1.7,0L87.6-31.4z"/>
</g>
</svg>
